<svg width="207" height="198" viewBox="0 0 207 198" fill="none" xmlns="http://www.w3.org/2000/svg">
<path d="M147.339 102.943C147.528 107.013 149.358 111.24 153.084 113.671C152.4 115.881 151.755 118.095 151.129 120.314C150.42 122.835 149.751 125.364 149.115 127.902C148.324 131.051 152.881 134.195 156.699 134.388C159.955 134.55 163.022 132.879 166.278 132.744C166.661 132.726 167.069 132.731 167.384 132.524C167.651 132.354 167.797 132.062 167.928 131.783C169.835 127.794 171.422 123.675 172.678 119.47C173.319 117.332 173.921 115.09 175.43 113.37C178.123 110.306 182.985 109.659 186.086 106.95C187.537 105.683 188.541 103.985 188.91 102.171C189.298 100.293 189.021 98.3611 188.745 96.4699C188.473 94.6236 188.196 92.7549 187.449 91.0209C186.838 89.6103 185.926 88.3166 184.863 87.1576C181.262 83.2225 176.031 80.8641 170.703 79.3502C165.38 77.8318 159.839 77.0502 154.482 75.6396C152.75 80.5271 151.153 85.7426 149.557 90.958C148.363 94.8752 147.15 98.8732 147.339 102.943Z" fill="white"/>
<path d="M145.475 56.8848C143.491 61.5701 143.544 66.9607 145.616 71.6146C147.892 76.7178 152.453 80.7697 157.718 83.3617C162.983 85.9537 168.927 87.1756 174.648 88.0201C173.949 92.3596 173.25 96.6945 172.678 101.384C173.92 100.351 174.852 99.0395 176.007 97.9254C177.161 96.8068 178.656 95.8455 180.325 95.8365C181.237 95.832 182.125 96.115 182.931 96.5059C184.227 97.1393 185.386 98.132 185.852 99.4213C186.512 101.236 185.571 103.379 183.829 104.412C182.087 105.445 179.724 105.396 177.695 104.731C175.953 108.734 174.265 113.176 173.25 117.583C175.23 116.483 177.734 115.571 179.898 114.825C184.6 113.199 189.006 110.719 192.432 107.319C195.858 103.918 198.255 99.565 198.808 94.9471C199.075 92.7279 198.9 90.3965 197.789 88.4154C196.348 85.8414 193.475 84.1523 190.53 83.5055C191.461 78.582 189.341 73.4025 185.595 69.8043C181.849 66.2105 176.637 64.1082 171.305 63.3266C164.521 62.3293 157.354 63.3041 150.91 61.1029C148.848 60.3932 146.814 59.2881 145.475 56.8848Z" fill="black"/>
<path d="M71.2837 50.4201C71.4244 42.5856 67.6541 35.0522 67.591 27.2178C67.5619 23.4938 68.382 19.7698 69.9833 16.3557C71.0217 14.1456 72.4871 11.9714 74.758 10.7899C77.029 9.60397 80.251 9.73425 81.8959 11.603C82.8713 12.7126 83.143 14.1995 83.3856 15.61C84.0359 19.4419 84.6861 23.2737 85.3363 27.101C87.4228 25.7219 89.1163 24.1811 90.8147 22.6403C91.8288 21.7194 93.4544 20.7671 94.5073 21.6475C95.0314 22.0878 95.1285 22.811 95.1091 23.4624C95.0266 26.2475 93.5223 28.7946 92.251 31.3147C89.1746 37.4106 87.2676 44.0051 86.661 50.7705C81.435 52.5449 75.6121 51.3365 71.2837 50.4201Z" fill="white"/>
<path d="M169.602 65.9629C172.586 70.0328 175.789 73.8152 179.234 77.2652C183.96 82.0045 189.133 86.1058 194.815 89.448C196.067 90.1892 197.343 90.89 198.649 91.5549C201.041 88.0779 203.317 84.5381 205.495 80.9398C209.358 74.5789 212.915 68.0517 216.272 61.4347C218.922 56.2283 221.455 50.968 223.915 45.6896C224.541 44.3375 223.09 42.9584 221.62 43.5155C219.921 44.1534 218.257 44.7823 216.617 45.4066C212.725 46.8846 208.999 48.3355 205.388 49.7775C201.545 51.3139 197.829 52.8457 194.175 54.4135C189.269 56.5113 184.48 58.6721 179.642 60.981C176.332 62.5623 173.004 64.2154 169.602 65.9629Z" fill="black"/>
<path d="M205.389 49.7738C205.36 50.3039 205.335 50.8385 205.301 51.3686C204.777 61.2199 204.263 71.1836 205.495 80.9361C209.358 74.5752 212.915 68.048 216.273 61.4311C215.972 56.0854 216.079 50.7217 216.617 45.3984C212.726 46.8809 208.999 48.3318 205.389 49.7738ZM179.647 60.9818C179.152 66.3949 179.021 71.835 179.239 77.266C183.965 82.0053 189.138 86.1066 194.82 89.4488C192.19 77.9578 191.981 65.9906 194.18 54.4143C189.274 56.5121 184.48 58.6684 179.647 60.9818ZM169.671 214.372C169.777 215.778 169.758 217.193 169.607 218.595C161.557 219.875 153.342 219.83 145.176 219.776C130.279 219.682 114.916 219.507 101.237 214.044C100.271 191.781 102.217 171.984 108.147 143.692C108.404 142.466 108.195 141.167 107.763 139.981C107.079 138.086 105.371 136.684 103.746 135.363C92.5851 126.276 82.0893 116.397 73.4035 105.23C70.7541 101.82 68.2406 98.2311 66.9741 94.1971C65.8774 90.6977 65.761 87.0096 65.7367 83.3664C65.6542 71.1162 66.5131 58.857 68.3085 46.7191C75.1019 45.6455 81.9244 46.4182 88.6546 47.1863C89.1059 61.5883 90.8188 75.7926 93.7449 89.7812C103.503 94.0893 113.053 97.6381 121.704 102.687C130.356 107.737 138.14 114.425 142.715 122.893C144.627 121.599 146.728 120.755 148.917 120.193C150.44 122.844 151.964 126.011 153.745 129.047C160.048 127.727 166.293 126.316 172.859 124.483C173.785 127.228 174.712 129.973 175.508 133.014C180.181 136.168 184.713 139.492 189.1 142.978C190.41 144.02 191.725 145.098 192.627 146.459C193.738 148.144 194.132 150.134 194.495 152.079C196.684 163.777 198.47 175.573 198.669 187.446C198.761 192.868 198.479 198.47 196 203.384C193.811 207.719 189.934 211.304 185.252 213.325C180.569 215.347 175.115 215.778 169.671 214.372Z" fill="white"/>
<path d="M144.771 142.132C142.471 132.775 143.99 122.96 142.515 113.459C142.37 112.515 142.146 111.5 141.375 110.871C140.793 110.4 139.997 110.229 139.23 110.162C137.435 109.995 135.63 110.274 133.863 110.615C132.791 110.822 131.67 111.082 130.889 111.792C130.374 112.259 130.054 112.888 129.841 113.526C129.278 115.206 129.384 117.003 129.491 118.76C129.763 123.148 130.074 127.677 132.204 131.603C133.194 133.427 134.552 135.057 136.032 136.567C137.871 138.44 139.919 140.133 142.127 141.625C142.782 142.056 143.631 142.487 144.771 142.132Z" fill="white"/>
<path d="M90.5061 111.204C90.9914 112.934 91.496 114.605 92.0152 116.231C93.6068 121.177 95.3925 125.709 97.5421 130.076C97.6877 130.381 97.8672 130.705 98.1923 130.857C98.6193 131.051 99.124 130.862 99.5559 130.678C102.53 129.393 105.51 128.117 108.489 126.832C108.795 126.702 109.091 126.572 109.397 126.442C112.303 125.193 115.215 123.944 118.116 122.686C120.217 121.783 122.314 120.88 124.41 119.982C129.447 117.817 134.479 115.651 139.511 113.482C140.515 113.05 141.524 112.619 142.529 112.183C143.441 111.788 144.382 111.379 145.062 110.692C145.741 110.005 146.11 108.967 145.688 108.122C145.033 106.815 143.092 106.73 141.539 106.842C138.356 107.071 135.173 107.305 131.994 107.534C124.478 108.078 116.957 108.626 109.44 109.165C109.013 109.196 108.591 109.228 108.164 109.259C104.384 109.538 100.599 109.807 96.8385 110.256C94.718 110.512 92.6072 110.818 90.5061 111.204Z" fill="white"/>
<path d="M109.44 109.173C114.856 112.331 120.232 115.583 124.415 119.985C129.452 117.82 134.484 115.655 139.516 113.485C137.206 111.302 134.687 109.307 131.999 107.542C124.478 108.086 116.957 108.634 109.44 109.173ZM90.5063 111.203C90.9915 112.933 91.4962 114.604 92.0154 116.23C92.8354 116.571 93.6604 116.931 94.4707 117.295C99.8472 119.734 104.874 122.811 109.397 126.441C112.303 125.192 115.215 123.943 118.117 122.685C111.027 118.543 103.933 114.402 96.8387 110.255C94.7182 110.511 92.6074 110.817 90.5063 111.203Z" fill="black"/>
<path d="M140.957 121.828C139.035 117.547 137.085 113.221 134.154 109.457C133.125 108.141 131.951 106.874 130.427 106.061C129.166 105.387 127.72 105.059 126.274 104.866C123.653 104.511 120.985 104.569 118.364 104.902C116.831 105.095 115.288 105.392 113.929 106.065C112.57 106.739 111.391 107.849 110.984 109.228C114.215 109.03 117.452 110.382 119.655 112.579C121.858 114.776 123.066 117.741 123.289 120.732C123.386 122.049 123.304 123.369 123.391 124.686C123.77 130.292 127.244 135.336 131.32 139.496C132.13 140.323 132.98 141.136 134.023 141.688C135.066 142.241 136.338 142.515 137.492 142.192C138.807 141.823 139.773 140.727 140.239 139.528C140.705 138.328 140.748 137.03 140.744 135.759C140.719 131.572 140.258 127.385 140.957 121.828Z" fill="white"/>
<path d="M90.4145 111.15C93.8792 109.973 96.8925 115.907 98.3337 119.739C99.7748 123.571 100.391 130.278 97.7465 130.938C95.102 131.598 91.2686 125.565 89.9244 120.974C88.59 116.388 88.0805 111.94 90.4145 111.15Z" fill="black"/>
<path d="M175.943 183.681C165.569 166.417 155.199 149.154 144.825 131.89C138.046 131.751 131.233 133.346 125.333 136.445C132.078 157.285 139.458 178.398 153.195 196.052C153.554 196.51 153.952 196.991 154.53 197.175C155 197.323 155.515 197.243 156.005 197.153C163.88 195.684 171.004 191.039 175.943 183.681Z" fill="white"/>
<path d="M197.701 92.4397C202.786 84.1427 207.862 75.8411 212.583 67.3598C214.942 63.1237 217.213 58.8471 219.343 54.5077C220.41 52.338 221.444 50.1548 222.434 47.9581C222.841 47.0507 223.676 45.7749 223.254 44.7642C222.754 43.5648 220.988 44.2881 220.022 44.5441C218.251 45.0202 216.567 45.721 214.869 46.3813C212.855 47.1585 210.846 47.9446 208.842 48.7397C202.709 51.1745 196.609 53.6811 190.578 56.3225C184.26 59.0897 177.956 61.9602 171.969 65.3069C171.338 65.6573 170.712 66.0167 170.091 66.385C169.537 66.7085 169.038 65.8954 169.586 65.5675C175.521 62.068 181.858 59.1481 188.195 56.336C194.527 53.5239 200.938 50.8735 207.386 48.304C209.565 47.437 211.749 46.579 213.937 45.73C215.427 45.1505 216.917 44.5217 218.445 44.0275C219.576 43.6592 220.808 43.2638 222.007 43.1605C222.982 43.0752 223.807 43.5334 224.176 44.3779C224.588 45.3167 224.263 46.2915 223.87 47.1899C223.385 48.295 222.88 49.3911 222.375 50.4872C220.279 55.0018 218.018 59.4491 215.65 63.847C210.904 72.6516 205.727 81.2407 200.491 89.8028C199.855 90.8405 199.22 91.8782 198.584 92.9159C198.259 93.437 197.381 92.9653 197.701 92.4397ZM142.913 131.311C142.806 125.066 142.471 118.827 141.908 112.601C141.855 111.999 142.869 111.994 142.923 112.596C143.481 118.822 143.815 125.062 143.927 131.306C143.937 131.913 142.922 131.913 142.913 131.311ZM138.312 117.318C137.182 115.225 135.983 113.163 134.707 111.146C133.644 109.47 132.451 107.723 130.67 106.622C128.695 105.405 126.303 105.355 124.012 105.292C121.576 105.225 119.014 105.041 116.603 105.432C114.327 105.8 111.954 106.945 111.313 109.156C111.144 109.74 110.163 109.502 110.328 108.918C111.716 104.129 118.092 104.241 122.338 104.313C124.818 104.358 127.506 104.255 129.84 105.149C131.99 105.971 133.518 107.642 134.755 109.412C136.415 111.784 137.837 114.326 139.2 116.851C139.487 117.39 138.608 117.861 138.312 117.318Z" fill="black"/>
<path d="M90.8371 110.611C94.9567 110.131 99.0765 109.641 103.201 109.174C106.971 108.743 110.897 108.397 114.604 109.385C117.613 110.189 120.403 111.847 121.931 114.439C123.673 117.395 123.683 120.849 123.94 124.119C124.246 128.019 125.435 131.671 128.06 134.784C128.458 135.255 127.74 135.92 127.337 135.444C125.236 132.951 123.804 130.022 123.256 126.896C122.669 123.54 122.999 120.054 121.897 116.779C120.883 113.765 118.462 111.631 115.279 110.571C111.761 109.398 107.961 109.601 104.312 109.991C99.8189 110.468 95.3352 111.029 90.8468 111.555C90.1965 111.627 90.1965 110.688 90.8371 110.611ZM132.776 106.882C135.377 106.716 137.978 106.545 140.588 106.523C142.277 106.505 144.781 106.262 146.013 107.619C147.44 109.187 145.882 111.065 144.364 111.905C142.335 113.023 140.098 113.886 137.915 114.699C137.308 114.923 137.051 114.016 137.653 113.791C139.545 113.086 141.404 112.3 143.209 111.419C144.004 111.033 144.883 110.593 145.315 109.829C145.751 109.052 145.528 108.217 144.664 107.83C144 107.529 143.218 107.493 142.49 107.475C141.442 107.453 140.389 107.462 139.336 107.489C137.148 107.547 134.969 107.686 132.786 107.826C132.126 107.862 132.126 106.923 132.776 106.882Z" fill="black"/>
<path d="M123.213 121.375C118.404 123.338 113.591 125.301 108.782 127.264C106.395 128.239 104.012 129.213 101.625 130.184C99.7857 130.934 97.5439 131.891 95.7922 130.444C95.3069 130.04 96.03 129.384 96.5152 129.784C97.3886 130.507 98.6211 130.301 99.6256 129.959C100.722 129.586 101.785 129.097 102.857 128.661C105.051 127.767 107.244 126.869 109.437 125.975C113.863 124.169 118.288 122.363 122.713 120.557C123.3 120.314 123.81 121.128 123.213 121.375ZM181.757 195.59C175.322 185.132 169.024 174.603 162.866 164.001C159.809 158.732 156.786 153.449 153.797 148.148C152.302 145.498 150.818 142.843 149.342 140.183C148.605 138.854 147.867 137.524 147.135 136.19C146.775 135.543 146.421 134.892 146.062 134.245C145.771 133.71 145.485 132.888 144.951 132.506C144.349 132.075 143.272 132.21 142.549 132.214C141.748 132.219 140.943 132.25 140.142 132.313C138.512 132.443 136.896 132.699 135.309 133.077C132.16 133.827 129.171 135.049 126.449 136.688C126.526 136.513 126.609 136.334 126.687 136.158C128.278 145.013 131.476 153.525 135.164 161.8C137.003 165.928 138.958 170.012 140.914 174.095C142.83 178.106 144.762 182.118 146.814 186.071C148.847 189.984 151.007 193.843 153.394 197.585C155.718 201.228 158.227 204.848 161.168 208.096C163.963 211.182 167.355 213.747 171.756 214.417C175.958 215.055 180.519 214.233 184.43 212.764C188.133 211.376 191.49 209.161 193.737 206.07C195.809 203.218 196.979 199.889 197.634 196.524C198.89 190.087 198.279 183.555 197.585 177.1C196.954 171.224 196.158 165.358 195.275 159.509C194.941 157.294 194.615 155.066 194.159 152.869C193.596 150.183 192.917 147.452 190.962 145.313C189.875 144.123 188.555 143.148 187.254 142.169C186.056 141.266 184.847 140.372 183.634 139.483C181.339 137.798 179.034 136.131 176.725 134.469C176.23 134.114 175.623 133.787 175.191 133.369C174.91 133.099 174.847 132.578 174.74 132.228C174.099 130.17 173.464 128.117 172.823 126.06C172.673 125.575 172.522 125.085 172.367 124.6C172.576 124.712 172.78 124.82 172.988 124.932C167.408 126.267 161.823 127.596 156.243 128.93C155.452 129.119 154.661 129.308 153.875 129.496C153.666 129.546 153.404 129.461 153.302 129.276C151.691 126.325 150.08 123.374 148.474 120.422C148.663 120.494 148.857 120.571 149.046 120.642C147.212 121.303 145.378 121.963 143.549 122.619C142.942 122.839 142.68 121.927 143.287 121.712C145.121 121.051 146.955 120.391 148.784 119.735C148.983 119.663 149.265 119.784 149.357 119.955C150.968 122.906 152.579 125.858 154.185 128.809C153.996 128.737 153.802 128.661 153.613 128.589C159.193 127.255 164.778 125.925 170.358 124.591C171.149 124.402 171.94 124.214 172.726 124.025C172.993 123.962 173.27 124.11 173.347 124.357C173.852 125.984 174.357 127.61 174.866 129.236C175.167 130.211 175.473 131.186 175.773 132.156C175.827 132.336 176.006 132.65 175.987 132.839C175.972 132.973 175.919 132.681 175.89 132.69C175.909 132.686 176.031 132.794 176.05 132.807C176.744 133.243 177.394 133.769 178.054 134.249C179.19 135.067 180.325 135.889 181.461 136.711C183.935 138.508 186.41 140.309 188.836 142.16C190.263 143.252 191.621 144.402 192.65 145.839C193.533 147.079 194.077 148.476 194.475 149.909C195.057 152.011 195.445 154.141 195.795 156.283C196.77 162.271 197.575 168.291 198.289 174.311C199.021 180.492 199.769 186.722 199.167 192.944C198.832 196.43 198.095 199.907 196.605 203.132C195.076 206.439 192.699 209.255 189.496 211.308C186.153 213.451 182.174 214.749 178.166 215.288C173.706 215.886 169.179 215.437 165.389 213.038C161.833 210.787 159.217 207.476 156.791 204.238C154.054 200.585 151.613 196.754 149.362 192.827C144.839 184.944 141.021 176.718 137.173 168.543C133.257 160.223 129.53 151.773 127.172 142.942C126.594 140.776 126.104 138.593 125.711 136.396C125.672 136.176 125.745 135.988 125.949 135.866C130.864 132.915 136.682 131.289 142.544 131.271C143.791 131.266 145.184 131.168 146.009 132.196C146.441 132.735 146.732 133.387 147.062 133.984C147.435 134.667 147.814 135.35 148.188 136.033C149.692 138.764 151.211 141.491 152.734 144.213C158.868 155.169 165.156 166.058 171.591 176.867C175.225 182.976 178.913 189.063 182.645 195.123C182.965 195.648 182.082 196.116 181.757 195.59Z" fill="black"/>
<path d="M170.136 175.739C169.83 170.169 169.777 164.594 169.966 159.019C169.985 158.413 171 158.408 170.98 159.014C170.791 164.589 170.844 170.164 171.15 175.734C171.184 176.336 170.17 176.341 170.136 175.739ZM174.095 134.083C168.039 137.308 161.838 140.296 155.505 143.036C155.234 143.153 154.831 143.067 154.763 142.748C153.924 138.629 153.084 134.51 152.249 130.39C152.531 130.462 152.812 130.534 153.094 130.601C151.41 132.295 149.615 133.881 147.703 135.354C147.203 135.736 146.485 135.071 146.989 134.685C148.896 133.211 150.697 131.626 152.38 129.932C152.628 129.68 153.157 129.802 153.225 130.143C154.064 134.263 154.904 138.382 155.738 142.501C155.491 142.407 155.243 142.308 154.996 142.214C161.328 139.473 167.53 136.486 173.585 133.261C174.158 132.964 174.663 133.782 174.095 134.083ZM170.296 214.965C170.51 215.984 170.587 216.991 170.505 218.028C170.49 218.244 170.359 218.424 170.126 218.487C166.39 219.502 162.353 219.848 158.495 220.135C148.077 220.908 137.581 220.247 127.197 219.309C122.408 218.873 117.618 218.343 112.873 217.593C109.655 217.08 106.351 216.537 103.279 215.468C102.391 215.158 101.198 214.794 100.64 214.035C100.057 213.24 100.091 212.193 100.048 211.277C99.9846 209.812 99.941 208.352 99.9167 206.888C99.8294 201.488 100.004 196.084 100.397 190.698C101.198 179.746 102.882 168.861 105.026 158.071C105.555 155.412 106.113 152.752 106.691 150.102C107.244 147.577 107.846 144.985 107.554 142.393C107.263 139.792 105.812 137.748 103.828 135.961C101.926 134.245 99.8682 132.672 97.9175 131.001C89.7946 124.043 82.2442 116.536 75.2762 108.581C73.0247 106.007 70.9236 103.307 69.3029 100.346C67.4783 96.9998 66.3041 93.3926 65.7315 89.682C65.0958 85.5717 65.1735 81.4299 65.3433 77.2926C65.5034 73.335 65.7654 69.3818 66.076 65.4332C66.5321 59.5889 67.0804 53.7535 67.7161 47.9227C67.7501 47.5992 67.7889 47.2758 67.8229 46.9523C67.8471 46.7547 67.9636 46.5391 68.2013 46.4941C75.0335 45.2184 82.0792 45.3441 88.8484 46.8805C89.0667 46.9299 89.2268 47.1275 89.2268 47.3342C89.2414 59.0094 90.2507 70.6801 92.279 82.2025C92.8516 85.4684 93.5115 88.7162 94.2394 91.9551C94.3704 92.5436 93.3951 92.7906 93.2592 92.1977C90.6729 80.7471 89.0619 69.1123 88.4699 57.4236C88.3 54.0635 88.2175 50.7033 88.2127 47.3387C88.3388 47.4914 88.465 47.6397 88.5912 47.7924C81.9919 46.2965 75.1209 46.1572 68.4634 47.4061C68.5895 47.2533 68.7157 47.1006 68.8419 46.9479C68.3566 51.2289 67.9442 55.5145 67.5657 59.8C66.896 67.3244 66.2604 74.8893 66.2361 82.4406C66.2216 86.7217 66.7068 91.0297 68.1043 95.1266C69.2301 98.4283 70.9672 101.501 73.0877 104.34C75.6547 107.777 78.6583 110.957 81.6183 114.102C85.2382 117.947 89.0133 121.671 92.9244 125.265C94.8799 127.062 96.8742 128.822 98.8977 130.556C100.844 132.214 102.906 133.773 104.779 135.502C106.482 137.075 107.85 138.894 108.36 141.104C108.879 143.355 108.607 145.677 108.18 147.919C107.19 153.17 105.953 158.381 104.992 163.641C104.002 169.05 103.144 174.481 102.474 179.93C101.814 185.298 101.338 190.689 101.091 196.088C100.97 198.784 100.907 201.484 100.907 204.183C100.907 206.838 100.868 209.543 101.106 212.193C101.183 213.078 101.44 213.648 102.28 214.057C102.726 214.273 103.192 214.448 103.663 214.61C104.973 215.055 106.327 215.387 107.685 215.683C111.655 216.55 115.702 217.116 119.739 217.602C130.443 218.886 141.371 219.753 152.167 219.506C157.825 219.376 163.619 219.008 169.141 217.759C169.379 217.705 169.622 217.651 169.854 217.588C169.728 217.741 169.602 217.894 169.476 218.046C169.549 217.089 169.5 216.164 169.301 215.221C169.19 214.614 170.17 214.367 170.296 214.965Z" fill="black"/>
<path d="M123.828 104.793C116.059 100.494 108.125 96.4373 99.9782 92.7851C97.6345 91.7339 95.2763 90.7187 92.8986 89.7349C92.3017 89.4879 92.8161 88.6748 93.4081 88.9218C101.672 92.3449 109.727 96.1857 117.592 100.336C119.854 101.531 122.1 102.749 124.337 103.984C124.9 104.29 124.391 105.107 123.828 104.793ZM87.0131 46.3004C87.5954 42.8953 88.5125 39.5396 89.7644 36.2873C90.9969 33.0888 92.7583 30.0881 93.9472 26.8806C94.4518 25.524 95.5436 23.0533 94.1655 21.8719C93.4377 21.2474 92.6807 21.5844 92.0208 22.1144C91.4191 22.5951 90.8562 23.1252 90.3079 23.6508C88.1777 25.6992 86.1348 27.9812 83.2525 29.1402C80.0644 30.416 75.4838 30.3666 73.5622 33.4931C73.242 34.0187 72.3588 33.5515 72.6839 33.0215C74.489 30.0746 78.3321 29.6613 81.4911 28.7404C83.2379 28.2328 84.7422 27.3927 86.1057 26.2652C87.3673 25.2185 88.4882 24.0371 89.6625 22.914C90.6281 21.9931 91.9626 20.3939 93.5299 20.5781C95.3592 20.7982 95.9561 22.6355 95.7668 24.091C95.5436 25.8295 94.8158 27.5275 94.0928 29.1312C93.3212 30.8517 92.4381 32.5318 91.6811 34.2568C89.944 38.201 88.7211 42.3248 87.9981 46.5295C87.8914 47.136 86.9112 46.8934 87.0131 46.3004Z" fill="black"/>
<path d="M84.9857 27.3795C84.6364 25.2592 84.2918 23.1389 83.9425 21.0231C83.6125 19.0195 83.4039 16.9576 82.8507 14.9945C82.3848 13.3324 81.458 11.6029 79.7063 10.8258C77.7751 9.96779 75.5187 10.7359 73.995 11.9578C71.1321 14.2488 69.5405 17.8201 68.7884 21.1758C67.978 24.819 68.1042 28.5834 68.6622 32.249C69.361 36.84 70.6663 41.3322 71.5446 45.8919C71.661 46.4849 70.6808 46.732 70.5644 46.1345C68.9825 37.9227 65.9837 29.6256 67.7451 21.2162C68.4924 17.6539 70.1616 13.885 73.1264 11.4098C74.6113 10.1699 76.5717 9.3254 78.6097 9.56798C80.5021 9.79259 81.9967 11.001 82.8992 12.5104C84.1172 14.5543 84.3015 17.0115 84.6703 19.2756C85.1022 21.8945 85.5292 24.518 85.9611 27.1369C86.063 27.7254 85.0828 27.977 84.9857 27.3795ZM79.7539 124.316C73.8048 124.698 67.8412 124.833 61.8776 124.72C61.2225 124.707 61.2177 123.768 61.8727 123.782C67.8364 123.894 73.8 123.759 79.749 123.377C80.3992 123.337 80.4041 124.276 79.7539 124.316ZM86.6259 136.661C81.2688 139.388 76.2999 142.712 71.826 146.566C71.3505 146.975 70.6323 146.31 71.1127 145.897C75.6497 141.993 80.6962 138.611 86.1261 135.848C86.6938 135.556 87.2033 136.369 86.6259 136.661ZM65.5465 135.906C60.8833 139.635 56.8461 143.988 53.5902 148.83C53.2456 149.343 52.3625 148.875 52.7119 148.359C56.0164 143.449 60.1069 139.015 64.838 135.237C65.3233 134.846 66.0414 135.511 65.5465 135.906ZM30.0414 149.45C31.8708 149.1 33.7001 148.754 35.5246 148.404C36.1603 148.282 36.4272 149.19 35.7867 149.311C33.9573 149.661 32.128 150.007 30.3035 150.358C29.6678 150.479 29.4009 149.572 30.0414 149.45ZM32.4099 107.991C35.4135 111.895 39.4653 115.044 44.1139 117.142C44.701 117.407 44.1915 118.22 43.6044 117.955C38.7859 115.781 34.6323 112.498 31.5267 108.459C31.1483 107.965 32.0314 107.502 32.4099 107.991ZM51.0868 113.037C53.6586 114.38 56.3565 115.485 59.1612 116.334C59.7823 116.523 59.5251 117.43 58.904 117.241C56.0168 116.365 53.2219 115.233 50.5773 113.85C50.0144 113.553 50.5191 112.74 51.0868 113.037ZM55.7592 130.094C54.0803 128.171 51.5085 127.358 48.9076 127.236C47.6071 127.174 46.2921 127.263 45.0111 127.479C43.7301 127.695 42.2355 128.009 41.3718 128.988C40.7361 129.703 40.7216 131.104 41.7357 131.58C42.9052 132.128 43.5263 130.534 43.2157 129.734C42.7111 128.422 40.9011 127.883 39.5861 127.609C37.9411 127.268 36.2137 127.299 34.5639 127.596C30.9828 128.238 27.8287 130.067 24.9658 132.088C24.4563 132.447 23.7333 131.787 24.2525 131.419C27.3969 129.195 30.8809 127.169 34.8599 126.599C36.8057 126.32 38.8243 126.369 40.7119 126.918C42.2016 127.349 43.9387 128.207 44.2687 129.761C44.5162 130.92 43.8611 132.344 42.5073 132.582C41.202 132.811 40.1878 131.756 39.9597 130.66C39.2659 127.371 44.0746 126.545 46.5978 126.338C50.1547 126.046 54.1288 126.738 56.4774 129.433C56.8898 129.896 56.1716 130.565 55.7592 130.094ZM90.5898 143.718C87.6444 145.205 85.0144 147.168 82.8308 149.526C81.739 150.703 80.7297 151.979 79.9873 153.376C79.2546 154.746 78.6965 156.444 79.1284 157.967C79.4875 159.229 81.3265 160.716 82.5785 159.387C83.0443 158.892 83.0831 158.178 82.5057 157.751C81.9428 157.334 81.1422 157.325 80.4968 157.554C79.0265 158.084 77.8522 159.598 76.9497 160.734C75.9889 161.938 75.164 163.236 74.4846 164.598C72.961 167.657 72.2234 171.021 72.3253 174.391C72.3447 174.997 71.3306 175.001 71.3112 174.395C71.1996 170.765 72.0487 167.145 73.7374 163.87C74.5768 162.248 75.625 160.73 76.8478 159.333C77.925 158.106 79.2982 156.579 81.1421 156.467C82.6367 156.377 84.2477 157.419 83.9226 158.933C83.5926 160.483 81.7439 161.179 80.2542 160.586C78.5219 159.894 77.8716 158.115 77.9929 156.48C78.1337 154.58 79.0314 152.806 80.1571 151.238C82.6561 147.761 86.1353 144.895 90.0851 142.896C90.6577 142.613 91.1624 143.43 90.5898 143.718ZM62.9019 152.406C62.3294 154.998 61.223 157.487 59.6508 159.697C58.8647 160.807 57.9622 161.849 56.9626 162.797C55.9921 163.718 54.9095 164.661 53.6722 165.272C52.7308 165.735 51.0912 166.256 50.1838 165.456C49.3152 164.692 50.0377 163.457 51.0033 163.143C52.1 162.783 53.3039 163.304 53.9929 164.104C54.876 165.133 54.8615 166.534 54.6868 167.769C54.2113 171.143 53.0467 174.44 51.4066 177.477C51.1154 178.021 50.2372 177.544 50.5283 177.005C51.6686 174.89 52.5469 172.666 53.134 170.366C53.43 169.211 53.7163 168.012 53.7648 166.822C53.8085 165.793 53.561 164.625 52.4644 164.126C52.0422 163.933 51.46 163.857 51.0718 164.158C50.868 164.315 50.7078 164.594 50.931 164.796C51.1106 164.962 51.5958 164.899 51.8142 164.872C52.9788 164.733 53.9784 164.023 54.8469 163.34C56.5356 162.001 57.9962 160.416 59.1607 158.659C60.4903 156.656 61.4171 154.459 61.9266 152.159C62.0528 151.575 63.033 151.813 62.9019 152.406ZM67.3322 108.85C63.853 107.161 60.3641 105.445 57.2101 103.257C55.6913 102.206 54.2501 101.052 52.9691 99.7578C52.3285 99.1064 51.7268 98.4191 51.1737 97.7003C50.6302 96.9951 50.0528 96.2314 49.9023 95.3554C49.7665 94.5648 50.043 93.7921 50.7466 93.307C51.3386 92.8982 52.1587 92.8263 52.7507 93.2845C54.0608 94.3042 53.0855 96.0023 51.7948 96.5189C50.0042 97.2331 47.7624 96.9052 45.9719 96.3751C43.8902 95.7552 41.9492 94.7535 40.0665 93.7427C35.8789 91.4921 31.963 88.8193 28.3819 85.805C27.8966 85.3962 28.6197 84.7404 29.1049 85.1447C31.8126 87.4222 34.7046 89.4976 37.7762 91.3394C39.295 92.2513 40.8574 93.1093 42.4539 93.9044C44.0358 94.6906 45.6759 95.4183 47.4422 95.7732C48.3544 95.9574 49.3006 96.0247 50.2323 95.9259C50.9504 95.8496 51.9792 95.6384 52.2703 94.9287C52.5372 94.2728 51.9452 93.5496 51.2562 94.129C50.4604 94.7939 51.0669 95.854 51.5279 96.5279C53.2456 99.039 55.701 101.114 58.2873 102.839C61.2909 104.843 64.5663 106.451 67.8368 108.041C68.4143 108.32 67.9096 109.133 67.3322 108.85Z" fill="black"/>
<path d="M96.0642 117.057C95.1859 115.153 93.8078 113.504 92.0416 112.233C91.8232 112.076 91.8717 111.73 92.0464 111.568C92.2648 111.37 92.5462 111.415 92.7646 111.572C94.5891 112.88 96.04 114.627 96.9425 116.59C97.0493 116.824 97.0104 117.093 96.7533 117.233C96.5398 117.349 96.171 117.291 96.0642 117.057Z" fill="white"/>
<path d="M176.419 111.64C174.701 115.953 173.086 120.301 171.572 124.676C171.373 125.251 170.388 125.018 170.587 124.438C172.1 120.058 173.716 115.715 175.434 111.402C175.662 110.84 176.647 111.074 176.419 111.64ZM166.02 113.801C163.502 115.503 160.284 116.105 157.222 115.665C154.093 115.216 151.375 113.599 149.565 111.209C145.174 105.409 146.94 97.9614 148.988 91.7082C150.4 87.4002 151.846 83.1012 153.277 78.8022C153.472 78.2272 154.452 78.4608 154.263 79.0403C153.074 82.6206 151.885 86.2008 150.696 89.7766C149.556 93.2042 148.323 96.6676 147.95 100.252C147.367 105.895 149.444 112.651 155.966 114.443C159.202 115.333 162.788 114.839 165.52 112.988C166.044 112.628 166.544 113.446 166.02 113.801Z" fill="black"/>
<path d="M153.462 113.792C152.395 116.618 151.56 119.51 150.958 122.448C150.837 123.046 149.857 122.803 149.973 122.21C150.575 119.268 151.41 116.375 152.477 113.554C152.691 112.983 153.676 113.217 153.462 113.792Z" fill="black"/>
<path d="M197.726 91.8248C197.115 91.3981 196.499 90.9713 195.887 90.5491C195.776 90.4727 195.688 90.3963 195.649 90.2616C195.615 90.1493 195.63 90.0055 195.698 89.9067C195.771 89.8034 195.873 89.7135 196.009 89.6866C196.13 89.6596 196.29 89.6596 196.392 89.7315C197.003 90.1582 197.62 90.585 198.231 91.0073C198.343 91.0836 198.43 91.16 198.469 91.2948C198.503 91.4071 198.488 91.5508 198.42 91.6496C198.347 91.753 198.245 91.8428 198.11 91.8698C197.993 91.8967 197.833 91.8967 197.726 91.8248ZM176.584 76.0847C174.726 74.1081 173.042 71.9923 171.577 69.7507C170.946 68.7894 170.063 67.6753 170.009 66.5118C169.966 65.5235 170.679 64.5892 171.78 64.5218C172.436 64.4813 172.436 65.4202 171.785 65.4606C171.319 65.4921 171.057 65.9368 171.023 66.3276C170.98 66.8442 171.271 67.3519 171.523 67.7876C172.047 68.6905 172.63 69.571 173.231 70.4335C174.459 72.1854 175.823 73.852 177.302 75.4288C177.734 75.878 177.016 76.5429 176.584 76.0847Z" fill="white"/>
</svg>
