<svg width="34" height="34" viewBox="0 0 34 34" fill="none" xmlns="http://www.w3.org/2000/svg">
<path d="M8.17016 13.2518C9.23823 12.8686 10.3389 12.5832 11.4586 12.3992L12.3086 11.5492C13.5572 10.2908 14.973 9.2102 16.5161 8.33776C14.5584 7.63651 12.035 8.27135 10.1809 10.1254L7.79031 12.516C7.43703 12.8799 7.70266 13.4192 8.17016 13.2518ZM22.6069 21.5154C22.2748 21.874 21.9375 22.2246 21.5948 22.5779C21.4088 23.6819 21.1252 24.7673 20.7475 25.8212C20.5802 26.2993 21.122 26.5623 21.4939 26.1904L23.8845 23.7998C25.7439 21.9404 26.3734 19.4196 25.6722 17.462C24.8123 18.9282 23.7835 20.2887 22.6069 21.5154ZM12.4839 24.4931C11.8843 24.9279 11.1973 25.227 10.4705 25.3696L8.02141 25.9965L8.64828 23.5474C8.78278 22.8157 9.07561 22.1221 9.50625 21.5154L8.55531 20.5645C7.58607 21.7759 7.02784 23.2645 6.96156 24.8145L6.86328 27.1201L9.16891 27.0218C10.7189 26.9555 12.2075 26.3973 13.4189 25.4281L12.4839 24.4931Z" fill="white"/>
<path d="M10.0769 22.0999C9.74559 22.597 9.51627 23.155 9.40218 23.7414L9.10999 24.8889L10.2575 24.5967C10.8439 24.4826 11.4019 24.2533 11.8991 23.922L10.0769 22.0999ZM27.1406 6.8583C23.7767 6.55287 20.3955 7.21455 17.3948 8.76548C15.7265 9.6423 14.2034 10.7712 12.8792 12.1124L8.0714 16.9202C7.80181 17.1901 7.65039 17.556 7.65039 17.9375C7.65039 18.319 7.80181 18.6849 8.0714 18.9549L15.0414 25.9381C16.2633 27.1574 17.5091 25.4999 18.3272 24.703C19.5756 23.4811 20.832 22.2672 22.0194 20.9842C23.283 19.6755 24.3642 18.2022 25.2334 16.6041C25.9615 15.2046 26.4976 13.7135 26.8272 12.1708C27.1988 10.4259 27.3045 8.63481 27.1406 6.8583ZM22.2106 17.5152C21.6441 18.0816 20.9223 18.4672 20.1365 18.6234C19.3508 18.7796 18.5364 18.6994 17.7963 18.3927C17.0561 18.0861 16.4236 17.5669 15.9785 16.9008C15.5335 16.2347 15.2959 15.4515 15.2959 14.6504C15.2959 13.8493 15.5335 13.0662 15.9785 12.4C16.4236 11.7339 17.0561 11.2147 17.7963 10.9081C18.5364 10.6015 19.3508 10.5212 20.1365 10.6774C20.9223 10.8336 21.6441 11.2193 22.2106 11.7856C22.5901 12.16 22.8914 12.606 23.0971 13.0978C23.3027 13.5896 23.4086 14.1173 23.4086 14.6504C23.4086 15.1835 23.3027 15.7112 23.0971 16.203C22.8914 16.6948 22.5901 17.1408 22.2106 17.5152Z" fill="white"/>
<path d="M20.5217 15.8253C21.1701 15.1769 21.1701 14.1258 20.5217 13.4775C19.8734 12.8291 18.8222 12.8291 18.1739 13.4775C17.5256 14.1258 17.5256 15.1769 18.1739 15.8253C18.8222 16.4736 19.8734 16.4736 20.5217 15.8253Z" fill="white"/>
<path d="M26.8278 12.1707L21.8287 7.17167C23.5732 6.79737 25.3643 6.68901 27.1412 6.85027C27.3059 8.62941 27.2002 10.4232 26.8278 12.1707ZM21.6481 12.3514C21.1931 11.8961 20.6133 11.5861 19.9821 11.4604C19.3508 11.3347 18.6965 11.3991 18.1018 11.6453C17.5072 11.8915 16.9989 12.3086 16.6413 12.8437C16.2837 13.3789 16.0928 14.008 16.0928 14.6517C16.0928 15.2953 16.2837 15.9245 16.6413 16.4596C16.9989 16.9947 17.5072 17.4118 18.1018 17.658C18.6965 17.9043 19.3508 17.9686 19.9821 17.8429C20.6133 17.7173 21.1931 17.4072 21.6481 16.952C22.258 16.3418 22.6006 15.5144 22.6006 14.6517C22.6006 13.7889 22.258 12.9615 21.6481 12.3514ZM21.085 16.3889C20.6826 16.7915 20.1531 17.0421 19.5867 17.098C19.0203 17.1539 18.4521 17.0116 17.9788 16.6955C17.5055 16.3793 17.1565 15.9088 16.9913 15.3641C16.8261 14.8195 16.8549 14.2344 17.0728 13.7086C17.2907 13.1828 17.6842 12.7488 18.1862 12.4806C18.6882 12.2125 19.2677 12.1267 19.8259 12.2379C20.3841 12.3492 20.8864 12.6506 21.2472 13.0907C21.6081 13.5308 21.8051 14.0825 21.8048 14.6517C21.8058 14.9745 21.7426 15.2942 21.6191 15.5924C21.4955 15.8907 21.314 16.1614 21.085 16.3889Z" fill="white"/>
</svg>
