<svg width="36" height="37" viewBox="0 0 36 37" fill="none" xmlns="http://www.w3.org/2000/svg">
<path d="M28.5 9.776V9.5C28.5 8.30653 28.0259 7.16193 27.182 6.31802C26.3381 5.47411 25.1935 5 24 5C22.8065 5 21.6619 5.47411 20.818 6.31802C19.9741 7.16193 19.5 8.30653 19.5 9.5H16.5C16.5 8.30653 16.0259 7.16193 15.182 6.31802C14.3381 5.47411 13.1935 5 12 5C10.8065 5 9.66193 5.47411 8.81802 6.31802C7.97411 7.16193 7.5 8.30653 7.5 9.5V9.776C6.62527 10.0846 5.86741 10.6561 5.33031 11.4124C4.79322 12.1686 4.50319 13.0725 4.5 14V27.5C4.5 29.981 6.519 32 9 32H27C29.481 32 31.5 29.981 31.5 27.5V14C31.4968 13.0725 31.2068 12.1686 30.6697 11.4124C30.1326 10.6561 29.3747 10.0846 28.5 9.776ZM22.5 9.5C22.5 9.10218 22.658 8.72064 22.9393 8.43934C23.2206 8.15804 23.6022 8 24 8C24.3978 8 24.7794 8.15804 25.0607 8.43934C25.342 8.72064 25.5 9.10218 25.5 9.5V12.5C25.5 12.8978 25.342 13.2794 25.0607 13.5607C24.7794 13.842 24.3978 14 24 14C23.6022 14 23.2206 13.842 22.9393 13.5607C22.658 13.2794 22.5 12.8978 22.5 12.5V9.5ZM10.5 9.5C10.5 9.10218 10.658 8.72064 10.9393 8.43934C11.2206 8.15804 11.6022 8 12 8C12.3978 8 12.7794 8.15804 13.0607 8.43934C13.342 8.72064 13.5 9.10218 13.5 9.5V12.5C13.5 12.8978 13.342 13.2794 13.0607 13.5607C12.7794 13.842 12.3978 14 12 14C11.6022 14 11.2206 13.842 10.9393 13.5607C10.658 13.2794 10.5 12.8978 10.5 12.5V9.5ZM28.5 27.5C28.5 28.3265 27.828 29 27 29H9C8.172 29 7.5 28.3265 7.5 27.5V18.5H28.5V27.5Z" fill="white"/>
</svg>
