<svg width="36" height="36" viewBox="0 0 36 36" fill="none" xmlns="http://www.w3.org/2000/svg">
<path d="M17.421 20.9697L24.783 28.3527C25.368 28.9392 26.268 28.8927 26.712 28.1937C28.0792 26.033 28.8038 23.5281 28.8015 20.9712C28.804 17.9014 27.7607 14.9223 25.8435 12.5247L17.421 20.9697ZM13.5 21.5937V10.5612C10.9993 10.9247 8.7132 12.1768 7.06037 14.0883C5.40755 15.9998 4.49861 18.4427 4.5 20.9697C4.5 26.7837 9.201 31.4997 15 31.4997C17.2662 31.4997 19.4706 30.7609 21.279 29.3952L13.5 21.5937ZM24.4965 9.31921C25.0815 8.73271 25.044 7.82071 24.363 7.34971C22.4496 6.02439 20.2759 5.12186 17.9865 4.70221C17.1705 4.55221 16.5 5.17021 16.5 5.99971V17.3397L24.4965 9.31921Z" fill="white"/>
</svg>
