<svg width="34" height="34" viewBox="0 0 34 34" fill="none" xmlns="http://www.w3.org/2000/svg">
<path d="M25.5 25.5V2.125C25.5 0.951477 24.5485 0 23.375 0H10.625C10.0616 0 9.521 0.224122 9.12256 0.622559L2.74756 6.99756C2.34912 7.396 2.125 7.93659 2.125 8.5V25.5C2.125 26.6746 3.07648 27.625 4.25 27.625H23.375C24.5485 27.625 25.5 26.6746 25.5 25.5ZM10.625 6.375C10.625 7.54852 9.67365 8.5 8.5 8.5H4.25L10.625 2.125V6.375Z" fill="white"/>
<path d="M29.75 6.375H27.625V25.5C27.625 27.8439 25.7189 29.75 23.375 29.75H8.5V31.875C8.5 33.0496 9.45148 34 10.625 34H29.75C30.9235 34 31.875 33.0496 31.875 31.875V8.5C31.875 7.32648 30.9235 6.375 29.75 6.375Z" fill="white"/>
</svg>
