<svg width="34" height="34" viewBox="0 0 34 34" fill="none" xmlns="http://www.w3.org/2000/svg">
<path d="M20.1875 0C12.9417 4.1749 13.8125 15.9375 13.8125 15.9375C13.8125 15.9375 10.625 14.875 10.625 10.0938C6.82208 12.2989 4.25 16.5374 4.25 21.25C4.25 28.2917 9.95834 34 17 34C24.0417 34 29.75 28.2917 29.75 21.25C29.75 10.8906 20.1875 8.76562 20.1875 0ZM18.12 29.6068C15.5579 30.2455 12.963 28.6864 12.3241 26.1242C11.6853 23.5621 13.2444 20.9671 15.8066 20.3283C21.9923 18.7861 22.7675 15.3076 22.7675 15.3076C22.7675 15.3076 25.852 27.6789 18.12 29.6068Z" fill="white"/>
</svg>
