<svg width="34" height="35" viewBox="0 0 34 35" fill="none" xmlns="http://www.w3.org/2000/svg">
<path d="M28.985 15.375C27.4763 14.95 24.9688 14.4612 22.1213 13.9513L14.0037 4.94125C13.5602 4.4513 13.0206 4.05781 12.4185 3.78525L9.88125 2.625C9.69 2.625 9.5625 2.625 9.66875 2.85875C9.775 3.0925 12.75 9 14.535 12.6125C10.625 11.9962 7.0975 11.4862 5.54625 11.2738C5.28324 11.2262 5.03282 11.1251 4.81055 10.9767C4.58829 10.8283 4.39893 10.6357 4.25425 10.411L2.72 8.12875C2.47702 7.77133 2.123 7.50395 1.71275 7.368L0 6.875L1.29625 13.8025C1.43862 14.525 1.972 15.0966 2.66475 15.2879C5.4825 16.0975 12.8987 18.1375 18.6575 19.37C31.4075 22.09 33.1075 22.09 33.7875 21.3037C34.4675 20.5175 32.3638 16.2463 28.985 15.375ZM0 28.125H34V30.25H0V28.125Z" fill="white"/>
</svg>
