<svg width="34" height="35" viewBox="0 0 34 35" fill="none" xmlns="http://www.w3.org/2000/svg">
<path d="M27.625 6.875C26.4675 7.98276 25.0907 8.83553 23.5832 9.37825C21.9937 9.65875 17.595 7.61875 15.4275 9.70125C15.0663 10.0625 14.62 10.4238 14.1525 10.785C13.1325 10.3388 11.56 9.65875 10.4125 9C9.265 8.34125 6.375 6.875 6.375 6.875L0 14.3125C0 14.3125 1.5725 16.4375 2.55 17.84C3.1875 18.775 3.97375 20.1988 4.48375 21.155L3.76125 22.005C3.58823 22.3487 3.52598 22.7376 3.58306 23.1181C3.64014 23.4987 3.81375 23.8522 4.08 24.13C4.38732 24.3604 4.76124 24.4846 5.14534 24.4838C5.52943 24.483 5.90285 24.3574 6.20925 24.1257C6.09564 24.2588 6.00966 24.4131 5.95632 24.5797C5.90298 24.7463 5.88335 24.9218 5.89858 25.0961C5.91382 25.2704 5.9636 25.4399 6.04503 25.5947C6.12646 25.7495 6.23791 25.8866 6.37288 25.9979C6.69737 26.1874 7.06655 26.2869 7.44233 26.2862C7.81811 26.2854 8.18689 26.1844 8.51062 25.9936C8.26783 26.2962 8.13498 26.6723 8.13382 27.0603C8.13266 27.4483 8.26327 27.8252 8.50425 28.1292C8.8175 28.2377 9.15157 28.2723 9.48039 28.2302C9.8092 28.1882 10.1238 28.0707 10.3997 27.887C10.2623 28.2123 10.2267 28.5717 10.2976 28.9177C10.3686 29.2637 10.5427 29.58 10.7971 29.825C11.1565 29.9847 11.5505 30.0505 11.9422 30.0163C12.334 29.9821 12.7106 29.849 13.0369 29.6295L14.1334 28.6371C15.1364 29.6359 16.5198 30.2542 18.0476 30.2542L18.1772 30.2521C18.6808 30.2091 19.1631 30.03 19.5726 29.7339C19.9821 29.4378 20.3034 29.0359 20.502 28.5713C20.8123 28.6903 21.165 28.771 21.539 28.771C22.0405 28.771 22.5059 28.6265 22.899 28.3779C24.1421 27.5555 23.8446 26.918 23.8446 26.918C24.2867 27.1083 24.7777 27.1534 25.247 27.0469C25.7163 26.9403 26.1397 26.6876 26.4562 26.3251C26.7852 25.9886 26.9926 25.5521 27.0457 25.0845C27.0988 24.6169 26.9946 24.145 26.7495 23.7432C26.7629 23.7513 26.7785 23.755 26.7941 23.7539C27.6888 23.7539 28.4665 23.2609 28.8724 22.5341C29.0721 22.0176 29.1396 21.4593 29.0687 20.9101C28.9978 20.3609 28.7908 19.838 28.4665 19.3891L28.4729 19.3997C30.2154 19.0598 30.1516 18.1885 31.0016 16.9135C31.8064 15.873 32.8079 15.0008 33.949 14.3465L27.625 6.875ZM27.5187 21.8775C26.5837 22.8125 25.8612 22.4087 24.2675 21.1975C22.6737 19.9862 19.5075 17.7125 19.5075 17.7125C19.6371 18.3606 19.9368 18.9237 20.3596 19.3721C21.0375 20.135 23.0562 21.8775 24.0125 22.77C24.6075 23.3225 26.1375 24.4275 25.245 25.2775C24.3525 26.1275 23.6512 25.2775 22.185 24.0875C20.7188 22.8975 17.4463 19.965 17.4463 19.965C17.4282 20.2461 17.47 20.5278 17.5689 20.7916C17.6678 21.0553 17.8216 21.2951 18.02 21.495C18.3812 21.92 20.4 23.875 21.25 24.7675C22.1 25.66 22.8438 26.1912 22.1213 26.8925C21.3988 27.5938 19.9325 26.4888 19.125 25.66C17.8713 24.4487 15.385 22.1962 15.385 22.1962L15.3829 22.3089C15.3829 22.9124 15.5911 23.4649 15.9417 23.9026C16.5537 24.7059 17.7437 25.7471 18.4662 26.5546C19.1887 27.3621 19.6137 28.0421 18.4662 28.6796C17.3187 29.3171 15.6187 27.7446 14.875 26.9796V26.9754C14.8752 26.7655 14.7997 26.5626 14.6625 26.4037C14.4083 26.1683 14.0947 26.0066 13.7554 25.9362C13.4162 25.8658 13.0641 25.8894 12.7373 26.0042C12.8717 25.8838 12.9796 25.7366 13.0538 25.5721C13.128 25.4075 13.1669 25.2292 13.1681 25.0487C13.1693 24.8682 13.1327 24.6894 13.0607 24.5239C12.9887 24.3583 12.8829 24.2097 12.75 24.0875C12.4711 23.8762 12.1306 23.762 11.7806 23.7623C11.4307 23.7627 11.0905 23.8777 10.812 24.0896C10.9528 23.9551 11.0615 23.7906 11.13 23.6084C11.1985 23.4261 11.2251 23.2307 11.2077 23.0368C11.1904 22.8428 11.1296 22.6553 11.0298 22.488C10.93 22.3208 10.7938 22.1782 10.6314 22.0709C10.251 21.8319 9.80458 21.7195 9.35635 21.7501C8.90811 21.7806 8.4811 21.9525 8.13663 22.2409C8.36685 21.9618 8.48036 21.6046 8.45343 21.2439C8.4265 20.8832 8.26122 20.5468 7.99213 20.305C7.65768 19.9937 7.23148 19.799 6.77722 19.75C6.32296 19.7009 5.86504 19.8002 5.47188 20.033L4.05875 17.6466C3.08125 16.0954 1.93375 14.4804 1.93375 14.4804L6.77875 8.59413C6.77875 8.59413 8.5 9.65663 9.92375 10.4641C10.625 10.8679 11.8363 11.3991 12.75 11.8241C11.305 12.9079 10.0938 13.9491 10.455 14.6716C11.0988 15.1338 11.8681 15.3887 12.6605 15.4023C13.4529 15.416 14.2305 15.1878 14.8899 14.7481C15.7353 14.1861 16.7286 13.888 17.7438 13.8918C18.4811 13.8918 19.1824 14.0448 19.8178 14.3231C20.995 15.1179 23.1625 17.0729 25.1388 18.3054C27.625 20.1116 28.1138 21.2804 27.5187 21.8754V21.8775Z" fill="white"/>
</svg>
