<svg width="34" height="34" viewBox="0 0 34 34" fill="none" xmlns="http://www.w3.org/2000/svg">
<path d="M22.9168 5.11992C21.0906 3.73203 19.032 3.25391 16.4223 3.25391C14.4434 3.25391 12.75 3.65898 11.4086 4.56211C9.42969 5.91016 8.5 8.17461 8.5 11.7539H13.6C13.6 10.7977 13.507 9.76836 14.0648 8.88516C14.6227 8.00195 15.3996 7.32461 16.7344 7.32461C18.0891 7.32461 18.7863 7.71641 19.4437 8.52656C20.0016 9.21719 20.2141 10.0406 20.2141 10.9172C20.2141 11.6742 19.8289 12.3715 19.3707 13.0023C19.1184 13.3742 18.7863 13.7063 18.368 14.025C18.368 14.025 15.6121 15.6652 14.6426 17.2191C13.9187 18.3746 13.6598 19.8223 13.6 21.5555C13.5934 21.6816 13.6398 21.9406 14.0781 21.9406H18.182C18.5672 21.9406 18.6469 21.6484 18.6535 21.5289C18.6801 20.898 18.7598 19.9285 18.8727 19.5633C19.0918 18.8727 19.5168 18.2684 20.1809 17.7504L21.5555 16.8008C22.7973 15.8313 23.7867 15.041 24.225 14.4168C24.9754 13.3941 25.5 12.1324 25.5 10.6383C25.5 8.20117 24.6035 6.40156 22.9168 5.11992ZM16.0703 24.5836C14.3504 24.5305 12.9293 25.7258 12.8695 27.5918C12.8164 29.4645 14.1645 30.693 15.891 30.7461C17.684 30.7992 19.0719 29.6437 19.125 27.7777C19.1781 25.9117 17.8633 24.6367 16.0703 24.5836Z" fill="white"/>
</svg>
