<svg width="34" height="35" viewBox="0 0 34 35" fill="none" xmlns="http://www.w3.org/2000/svg">
<path d="M17.0007 4.75C17.0007 4.75 8.23715 12.315 3.33973 16.412C3.1839 16.5478 3.05834 16.7148 2.97121 16.9022C2.88409 17.0897 2.83733 17.2933 2.83398 17.5C2.83398 17.8757 2.98324 18.2361 3.24892 18.5017C3.51459 18.7674 3.87493 18.9167 4.25065 18.9167H7.08398V28.8333C7.08398 29.2091 7.23324 29.5694 7.49892 29.8351C7.76459 30.1007 8.12493 30.25 8.50065 30.25H12.7507C13.1264 30.25 13.4867 30.1007 13.7524 29.8351C14.0181 29.5694 14.1673 29.2091 14.1673 28.8333V23.1667H19.834V28.8333C19.834 29.2091 19.9832 29.5694 20.2489 29.8351C20.5146 30.1007 20.8749 30.25 21.2507 30.25H25.5007C25.8764 30.25 26.2367 30.1007 26.5024 29.8351C26.7681 29.5694 26.9173 29.2091 26.9173 28.8333V18.9167H29.7507C30.1264 18.9167 30.4867 18.7674 30.7524 18.5017C31.0181 18.2361 31.1673 17.8757 31.1673 17.5C31.1653 17.2894 31.1155 17.0819 31.0215 16.8934C30.9275 16.7049 30.7918 16.5403 30.6247 16.412C25.7613 12.315 17.0007 4.75 17.0007 4.75Z" fill="white"/>
</svg>
