<svg width="34" height="34" viewBox="0 0 34 34" fill="none" xmlns="http://www.w3.org/2000/svg">
<path d="M16.9997 22.6665C16.1497 22.6665 15.4413 22.3832 14.733 22.0998L2.83301 14.7332V24.0832C2.83301 26.4915 4.67467 28.3332 7.08301 28.3332H26.9163C29.3247 28.3332 31.1663 26.4915 31.1663 24.0832V14.7332L19.2663 22.0998C18.558 22.3832 17.8497 22.6665 16.9997 22.6665ZM26.9163 5.6665H7.08301C4.67467 5.6665 2.83301 7.50817 2.83301 9.9165V11.4748L16.2913 19.6915C16.7163 19.9748 17.283 19.9748 17.708 19.6915L31.1663 11.4748V9.9165C31.1663 7.50817 29.3247 5.6665 26.9163 5.6665Z" fill="white"/>
</svg>
