<svg width="237" height="237" viewBox="0 0 237 237" fill="none" xmlns="http://www.w3.org/2000/svg">
<path d="M53.2277 49.5771L102.201 60.5759L105.094 62.4888L113.525 61.2646C116.382 61.3996 119.111 62.494 121.27 64.3709C123.429 66.2477 124.892 68.7975 125.424 71.6086C125.955 74.4196 125.523 77.3276 124.198 79.8631C122.873 82.3983 120.732 84.4128 118.12 85.5812L111.612 88.6464L116.031 105.785L107.543 110.62L97.6338 107.794C97.7104 104.08 97.7902 100.366 97.8732 96.6522L53.2277 117.549C48.3424 116.634 43.7906 114.43 40.0435 111.165C31.0579 103.151 30.7519 91.3916 30.618 85.1751C30.4793 79.4366 30.1972 67.9164 38.5801 58.6249C42.5481 54.3319 47.6126 51.2036 53.2277 49.5771Z" fill="#ADFF00"/>
<path d="M190.948 164.969C185.549 169.196 185.037 177.646 181.173 188.708C177.008 200.663 162.499 209.625 148.937 209.878C128.159 210.265 115.85 190.056 110.925 181.97C106.764 175.136 97.6402 160.159 101.781 142.996C108.577 114.844 144.758 106.862 153.27 104.983C162.834 102.87 160.997 110.382 168.424 115.547C178.821 122.767 195.658 161.278 190.948 164.969Z" fill="#F8F3DD"/>
<path d="M140.398 65.7748C141.156 65.7748 141.771 64.3617 141.771 62.6186C141.771 60.8755 141.156 59.4625 140.398 59.4625C139.64 59.4625 139.026 60.8755 139.026 62.6186C139.026 64.3617 139.64 65.7748 140.398 65.7748ZM129.959 65.5311C130.717 65.5311 131.332 64.118 131.332 62.3749C131.332 60.6318 130.717 59.2188 129.959 59.2188C129.201 59.2188 128.587 60.6318 128.587 62.3749C128.587 64.118 129.201 65.5311 129.959 65.5311ZM128.597 86.778C128.474 86.778 128.355 86.7401 128.256 86.6698C128.155 86.6002 128.079 86.5015 128.037 86.3869C127.995 86.2724 127.989 86.1476 128.019 86.0291C128.05 85.9114 128.116 85.8055 128.209 85.7257C128.248 85.6925 131.37 82.9907 131.265 78.9831C131.179 75.7504 129.065 72.5321 124.981 69.4189C124.855 69.3232 124.771 69.181 124.749 69.0236C124.727 68.8662 124.768 68.7065 124.864 68.5797C124.96 68.4528 125.102 68.3692 125.259 68.3473C125.417 68.3253 125.577 68.3668 125.703 68.4625C130.098 71.81 132.37 75.3392 132.461 78.9831C132.575 83.569 129.113 86.5291 128.984 86.6342C128.876 86.7274 128.738 86.778 128.597 86.778Z" fill="#161619"/>
<path d="M115.391 95.3945C115.276 95.3937 115.162 95.3605 115.065 95.2973C114.968 95.2349 114.89 95.1456 114.841 95.0406C114.81 94.9687 114.792 94.8913 114.791 94.8123C114.788 94.734 114.803 94.6558 114.831 94.5824C114.86 94.5089 114.902 94.4417 114.957 94.3849C115.01 94.328 115.076 94.283 115.148 94.2514L124.975 89.8992C125.931 88.7324 133.473 78.6664 120.537 66.6921L111.336 67.3616C113.015 69.8817 117.113 77.6478 115.214 91.2383C115.21 91.3205 115.187 91.4002 115.15 91.4737C115.112 91.5464 115.06 91.6112 114.996 91.6633C114.933 91.7155 114.859 91.7534 114.78 91.7763C114.701 91.7984 114.618 91.8039 114.536 91.7929C114.455 91.7818 114.377 91.7534 114.307 91.7107C114.236 91.6681 114.176 91.6112 114.129 91.544C114.081 91.4769 114.049 91.4002 114.032 91.3197C114.016 91.2391 114.017 91.1561 114.033 91.0756C116.267 75.0607 109.83 67.3042 109.763 67.2277C109.692 67.1434 109.646 67.0413 109.629 66.9326C109.612 66.8238 109.626 66.7125 109.668 66.6108C109.71 66.5091 109.78 66.4212 109.869 66.357C109.958 66.2929 110.064 66.2549 110.174 66.2473L120.695 65.4774C120.86 65.4688 121.022 65.5255 121.144 65.6353C135.768 78.9916 125.888 90.6695 125.788 90.784C125.731 90.8512 125.659 90.9033 125.578 90.9373L115.621 95.3416C115.549 95.3755 115.471 95.3937 115.391 95.3945Z" fill="#161619"/>
<path d="M59.176 123.03C54.8374 122.986 50.6546 121.408 47.3691 118.574C41.0232 113.189 37.6184 103.582 37.2502 90.0249C36.8964 76.9409 39.8086 67.0707 45.9106 60.744C52.4189 53.9726 60.1085 53.8052 60.4337 53.8004C60.478 53.7931 60.5233 53.7931 60.5676 53.8004L107.289 64.1345C107.366 64.1509 107.44 64.1832 107.505 64.2293C107.57 64.2754 107.625 64.3342 107.666 64.4023C107.963 64.8805 114.931 76.3144 112.539 98.2883C112.527 98.3902 112.489 98.4865 112.43 98.5703C112.371 98.654 112.292 98.7212 112.199 98.7662L60.6919 122.911C60.6378 122.937 60.5795 122.953 60.5198 122.959C60.0739 123.011 59.625 123.035 59.176 123.03ZM60.4002 54.9959C55.2022 55.457 50.3527 57.8044 46.7665 61.5952C40.9085 67.7019 38.1157 77.2565 38.4601 89.9956C38.8187 103.18 42.0705 112.472 48.1342 117.646C51.4964 120.549 55.8551 122.033 60.2902 121.782L111.401 97.8435C113.467 78.1173 107.709 66.9081 106.786 65.263L60.4002 54.9959ZM122.669 85.6538C122.59 85.6538 122.512 85.638 122.439 85.608C122.367 85.5772 122.3 85.5329 122.246 85.4768C122.191 85.4207 122.147 85.3544 122.118 85.2809C122.089 85.2082 122.074 85.13 122.075 85.051C122.166 76.5631 119.684 72.5892 119.684 72.5509C119.642 72.4846 119.613 72.4107 119.599 72.3333C119.585 72.2559 119.587 72.1765 119.604 72.0996C119.638 71.9444 119.732 71.8092 119.866 71.7236C120 71.638 120.162 71.6091 120.318 71.6431C120.472 71.6772 120.607 71.7715 120.694 71.9053C120.799 72.0727 123.372 76.1758 123.275 85.0605C123.275 85.1395 123.259 85.2177 123.228 85.2904C123.197 85.3631 123.152 85.4286 123.095 85.4839C123.039 85.5392 122.972 85.5827 122.899 85.6111C122.826 85.6404 122.748 85.6554 122.669 85.6538Z" fill="#161619"/>
<path d="M60.4354 122.955C60.2866 122.954 60.1437 122.897 60.0347 122.795C59.9256 122.694 59.8582 122.556 59.8456 122.408C59.8331 122.26 59.8763 122.112 59.9667 121.994C60.0573 121.876 60.1886 121.796 60.335 121.769C60.4784 121.745 74.5712 118.9 77.2635 88.8014C78.3825 76.3346 75.805 66.5362 69.8178 60.4629C65.3035 55.8817 60.3828 54.9874 60.335 54.9778C60.1865 54.9433 60.0569 54.8534 59.9725 54.7265C59.8881 54.5996 59.8554 54.4452 59.8811 54.295C59.9068 54.1448 59.9888 54.0101 60.1105 53.9183C60.2322 53.8266 60.3843 53.7848 60.5358 53.8014C60.751 53.8349 65.8296 54.7579 70.6164 59.5687C74.9968 63.9825 79.9131 72.6524 78.4542 88.9065C75.6711 120.024 61.1527 122.859 60.5358 122.95L60.4354 122.955Z" fill="#161619"/>
<path d="M70.0071 109.756C69.9194 109.755 69.8328 109.736 69.7536 109.698L57.1959 103.797C56.3638 103.644 51.9356 102.276 51.2231 90.4309C50.4436 77.7301 57.5737 74.11 57.875 73.9618C57.9194 73.9425 57.966 73.928 58.0136 73.9188L72.3599 70.8534C72.4385 70.8313 72.5209 70.8255 72.6019 70.8364C72.683 70.8474 72.7609 70.8748 72.8309 70.9171C72.9008 70.9594 72.9614 71.0155 73.0088 71.0821C73.0562 71.1487 73.0895 71.2243 73.1065 71.3042C73.1236 71.3842 73.124 71.4668 73.1079 71.5469C73.0917 71.6271 73.0593 71.703 73.0126 71.7702C72.9659 71.8372 72.906 71.8941 72.8365 71.9371C72.767 71.9801 72.6894 72.0084 72.6085 72.0203L58.3245 75.0712C57.6215 75.4442 51.7013 78.9638 52.4042 90.374C53.1168 102.004 57.3728 102.64 57.4159 102.644C57.483 102.655 57.5487 102.673 57.6119 102.697L70.2605 108.608C70.3318 108.641 70.3959 108.688 70.4492 108.745C70.5024 108.803 70.5438 108.87 70.5709 108.945C70.598 109.018 70.6102 109.096 70.6071 109.175C70.6038 109.253 70.5852 109.331 70.5523 109.402C70.5037 109.506 70.4269 109.595 70.3305 109.657C70.234 109.72 70.122 109.754 70.0071 109.756Z" fill="#161619"/>
<path d="M56.6164 119.712C56.5431 119.711 56.4704 119.698 56.4012 119.674C45.0821 115.37 42.6814 103.023 41.8494 92.741C40.893 80.872 47.014 67.0039 47.2627 66.4061C47.3348 66.2756 47.453 66.1766 47.5943 66.1288C47.7355 66.0809 47.8896 66.0876 48.0261 66.1475C48.1627 66.2074 48.272 66.3163 48.3325 66.4525C48.3929 66.5889 48.4002 66.7429 48.353 66.8844C48.2908 67.0278 42.1076 81.0537 43.0401 92.6312C43.8913 103.18 46.1963 114.509 56.8269 118.545C56.9578 118.595 57.0674 118.688 57.1365 118.81C57.2055 118.932 57.2296 119.074 57.2046 119.212C57.1795 119.349 57.1069 119.474 56.9995 119.564C56.892 119.653 56.7564 119.702 56.6164 119.702V119.712ZM57.3811 103.826C57.2383 103.827 57.1 103.776 56.991 103.684C56.8821 103.592 56.8098 103.464 56.7873 103.322C56.7648 103.182 56.7934 103.037 56.8682 102.915C56.9428 102.794 57.0586 102.703 57.1946 102.659C57.2472 102.659 62.7179 100.627 62.7179 88.1021C62.7179 75.7886 58.1462 75.1048 58.1032 75.1C57.9454 75.089 57.7984 75.0158 57.6944 74.8966C57.5905 74.7774 57.5379 74.6219 57.5484 74.464C57.552 74.3848 57.5716 74.307 57.6062 74.2356C57.6407 74.1642 57.6895 74.1006 57.7495 74.0487C57.8095 73.9968 57.8794 73.9576 57.955 73.9337C58.0307 73.9097 58.1104 73.9014 58.1893 73.9093C58.4236 73.9093 63.9278 74.4879 63.9278 88.1021C63.9278 101.593 57.8354 103.711 57.5772 103.792C57.5149 103.818 57.4481 103.829 57.3811 103.826ZM104.877 113.199C104.725 113.2 104.577 113.142 104.466 113.037C104.356 112.932 104.291 112.787 104.285 112.635L103.705 101.722C103.702 101.643 103.713 101.565 103.739 101.491C103.765 101.417 103.806 101.349 103.859 101.29C103.912 101.232 103.975 101.184 104.046 101.151C104.117 101.117 104.194 101.097 104.273 101.093C104.351 101.089 104.429 101.101 104.503 101.127C104.578 101.153 104.646 101.193 104.704 101.246C104.762 101.299 104.81 101.362 104.844 101.433C104.878 101.504 104.897 101.581 104.902 101.66L105.475 112.572C105.48 112.654 105.467 112.734 105.44 112.811C105.411 112.887 105.368 112.956 105.312 113.016C105.256 113.074 105.188 113.121 105.114 113.152C105.039 113.184 104.958 113.2 104.877 113.199ZM121.136 112.433C120.991 112.435 120.851 112.382 120.743 112.286C120.634 112.189 120.565 112.056 120.548 111.913L118.267 93.5302C118.252 93.3746 118.297 93.2197 118.394 93.0973C118.492 92.9756 118.632 92.8958 118.787 92.8769C118.942 92.8571 119.099 92.8998 119.223 92.9938C119.347 93.0878 119.43 93.2276 119.453 93.3817L121.753 111.764C121.772 111.921 121.728 112.079 121.63 112.204C121.533 112.329 121.389 112.41 121.232 112.429L121.136 112.433ZM126.592 69.9257C126.455 69.9249 126.323 69.877 126.217 69.7897C126.112 69.7026 126.04 69.5817 126.013 69.4474C124.45 62.7526 125.731 52.1698 125.789 51.7203C125.797 51.641 125.821 51.5641 125.859 51.4942C125.897 51.4242 125.949 51.3626 126.011 51.3129C126.074 51.2633 126.145 51.2266 126.221 51.205C126.299 51.1834 126.378 51.1773 126.457 51.1872C126.536 51.1972 126.613 51.2227 126.682 51.2625C126.751 51.3023 126.811 51.3556 126.86 51.419C126.908 51.4825 126.943 51.555 126.962 51.6321C126.982 51.7093 126.987 51.7897 126.975 51.8685C126.975 51.9737 125.66 62.6951 127.176 69.1749C127.211 69.3289 127.185 69.491 127.101 69.6254C127.018 69.7599 126.885 69.8558 126.731 69.8922C126.686 69.9082 126.639 69.9194 126.592 69.9257ZM131.494 73.4216C131.237 73.4221 130.983 73.3637 130.752 73.251C130.52 73.1382 130.318 72.9742 130.16 72.7713C129.022 71.3845 129.902 69.9881 130.829 68.5057C131.266 67.8389 131.664 67.1476 132.02 66.435C133.225 63.9245 132.718 56.7083 132.713 56.6366C132.703 56.5561 132.71 56.4743 132.732 56.3963C132.755 56.3183 132.793 56.2457 132.845 56.1829C132.896 56.1202 132.96 56.0685 133.032 56.0313C133.104 55.9939 133.183 55.9716 133.263 55.9658C133.345 55.9599 133.426 55.9706 133.503 55.9972C133.579 56.0238 133.65 56.0657 133.71 56.1205C133.77 56.1751 133.818 56.2415 133.851 56.3154C133.885 56.3894 133.902 56.4693 133.904 56.5504C133.928 56.8613 134.44 64.154 133.096 66.9515C132.721 67.7053 132.303 68.4366 131.844 69.1417C130.844 70.7341 130.543 71.351 131.083 72.0109C131.128 72.0788 131.189 72.1341 131.261 72.1717C131.333 72.2094 131.413 72.2282 131.494 72.2261C132.197 72.2261 133.283 71.1406 133.699 70.6193C133.797 70.4925 133.943 70.4102 134.102 70.3905C134.262 70.3707 134.423 70.4152 134.55 70.5142C134.677 70.6131 134.759 70.7584 134.779 70.9179C134.798 71.0776 134.754 71.2385 134.655 71.3653C134.488 71.5758 132.986 73.412 131.528 73.4216H131.494ZM135.085 82.1771C134.927 82.1771 134.775 82.1147 134.662 82.0025C134.55 81.8903 134.488 81.7379 134.488 81.5799C134.488 81.4211 134.55 81.2686 134.662 81.1572C134.775 81.045 134.927 80.9818 135.085 80.9818C137.883 80.9486 139.782 80.2503 140.733 78.9063C141.374 77.8916 141.597 76.6676 141.354 75.492C138.729 76.6301 133.307 76.7927 132.637 76.8071C132.48 76.806 132.329 76.7451 132.215 76.6367C132.101 76.5283 132.033 76.3806 132.025 76.2237C132.023 76.1447 132.036 76.0662 132.065 75.9927C132.094 75.9191 132.137 75.852 132.191 75.795C132.246 75.7381 132.311 75.6926 132.384 75.6611C132.456 75.6296 132.534 75.6128 132.613 75.6115C134.526 75.5685 139.863 75.2099 141.417 74.1099C141.491 74.055 141.578 74.0188 141.67 74.0046C141.761 73.9905 141.855 73.9987 141.943 74.0286C142.032 74.0559 142.113 74.1039 142.179 74.1688C142.246 74.2337 142.296 74.3135 142.325 74.4017C142.369 74.5212 143.311 77.3331 141.718 79.5899C140.537 81.2686 138.308 82.1392 135.105 82.1771H135.085Z" fill="#161619"/>
<path d="M123.257 65.303C123.132 65.3036 123.012 65.2652 122.91 65.1931C122.808 65.1211 122.733 65.019 122.692 64.9014C121.837 62.4385 121.818 60.344 122.635 58.6846C123.215 57.5059 124.209 56.5829 125.428 56.0928C125.502 56.0673 125.581 56.0568 125.66 56.0617C125.738 56.0667 125.814 56.0872 125.886 56.1218C125.956 56.1564 126.019 56.2047 126.071 56.2637C126.123 56.3227 126.163 56.3913 126.188 56.4657C126.213 56.5402 126.224 56.6188 126.219 56.6974C126.214 56.7758 126.194 56.8526 126.159 56.9232C126.125 56.9938 126.077 57.0569 126.017 57.1089C125.958 57.1608 125.889 57.2007 125.815 57.2261C125.643 57.2883 121.803 58.7086 123.821 64.5236C123.873 64.6732 123.863 64.8374 123.794 64.9799C123.726 65.1225 123.602 65.2318 123.453 65.2839C123.389 65.3017 123.323 65.3082 123.257 65.303ZM135.924 86.0433H135.819C133.835 85.9501 131.957 85.1159 130.559 83.7049C130.451 83.588 130.394 83.4332 130.4 83.2744C130.407 83.1156 130.475 82.9663 130.592 82.8581C130.709 82.7506 130.864 82.6938 131.022 82.7001C131.181 82.7064 131.331 82.7751 131.438 82.892C132.619 84.0612 134.188 84.7572 135.848 84.8481H135.944C138.813 84.8481 144.35 82.576 147.999 76.24C148.659 75.0859 149.212 74.0625 149.658 73.1699C149.601 73.0934 149.548 73.0169 149.501 72.9452C148.487 71.3813 148.209 69.2821 148.875 68.163C149 67.9317 149.189 67.7411 149.42 67.614C149.65 67.4869 149.913 67.4285 150.175 67.4457C150.505 67.4744 151.514 67.5509 151.968 68.4022C152.36 69.1529 152.322 70.315 151.069 72.9834C151.538 73.4429 152.11 73.7842 152.737 73.9788C153.364 74.1734 154.029 74.2158 154.675 74.1024C157.544 73.7629 162.326 68.8038 164.196 64.28C164.966 62.4102 165.057 60.9612 164.454 60.2057C163.771 59.3449 162.183 59.3975 160.968 59.5936C160.819 59.606 160.669 59.5614 160.551 59.4688C160.432 59.3762 160.352 59.2423 160.329 59.0938C160.304 58.9453 160.337 58.7932 160.42 58.6678C160.503 58.5423 160.631 58.4529 160.777 58.4172C163.001 58.0537 164.55 58.4172 165.392 59.4644C166.233 60.5117 166.257 62.415 165.301 64.7247C163.478 69.1577 158.396 74.8532 154.818 75.2788C154.058 75.4029 153.28 75.3612 152.537 75.1565C151.794 74.9518 151.104 74.589 150.515 74.0928C150.112 74.8818 149.62 75.7809 149.027 76.809C144.829 84.1355 138.688 86.0433 135.924 86.0433ZM150.056 68.6317C150.022 68.6317 149.969 68.6317 149.898 68.7704C149.597 69.2773 149.62 70.6306 150.261 71.8692C150.917 70.3675 151.133 69.3984 150.906 68.9617C150.864 68.8899 150.759 68.6891 150.075 68.6317H150.056Z" fill="#161619"/>
<path d="M163.539 67.2429H163.448C163.289 67.2429 163.138 67.1799 163.026 67.0678C162.913 66.9557 162.85 66.8036 162.85 66.6451C162.85 66.4865 162.913 66.3345 163.026 66.2225C163.138 66.1103 163.289 66.0474 163.448 66.0474H163.539C165.208 66.0474 166.332 65.6313 166.886 64.8136C167.815 63.4172 166.886 61.2031 166.886 61.184C166.841 61.0768 166.828 60.9588 166.848 60.8442C166.869 60.7297 166.922 60.6234 167.002 60.5384C167.059 60.481 172.596 54.513 171.898 49.97C171.396 46.7278 169.985 46.1444 168.36 45.5083C167.687 45.2641 167.045 44.9432 166.446 44.552C165.27 43.739 164.969 42.5961 164.534 41.0132C163.962 38.5894 162.992 36.277 161.664 34.17C160.23 31.8651 157.753 31.6164 156.299 31.7024C156.26 32.3468 156.036 32.9663 155.653 33.4862C155.318 33.8904 154.878 34.1937 154.381 34.3625C153.883 34.5314 153.349 34.5591 152.837 34.4426C151.531 34.2417 151.216 33.6727 151.177 33.2328C151.067 31.9798 153.133 31.1908 153.769 30.9804C154.2 30.8433 154.639 30.7363 155.084 30.66C155.017 30.2369 154.896 29.824 154.726 29.431C154.434 28.6578 153.939 27.9779 153.293 27.4635C152.646 26.949 151.872 26.6193 151.053 26.5091C148.155 26.1983 145.195 28.0777 143.756 29.6557C143.789 29.6929 143.82 29.7329 143.847 29.7753C144.416 30.5596 144.511 31.4969 144.081 32.0611C143.895 32.2818 143.64 32.4333 143.357 32.4913C143.074 32.5495 142.78 32.5108 142.522 32.3815C142.201 32.2646 141.94 32.0273 141.791 31.7201C141.643 31.413 141.621 31.0601 141.728 30.7365C141.814 30.42 141.948 30.1185 142.125 29.8422C141.446 29.4884 140.289 29.2588 138.419 29.9188C137.089 30.397 136.243 31.1238 135.908 32.109C135.191 34.2083 136.865 36.848 136.893 36.891C136.978 37.0217 137.008 37.1802 136.978 37.3329C136.948 37.4856 136.859 37.6205 136.73 37.7087C136.604 37.7984 136.447 37.8341 136.294 37.8081C136.14 37.7821 136.004 37.6966 135.913 37.5701C135.779 37.3931 132.532 33.2041 125.268 36.7859C120.357 39.2056 118.071 41.9505 118.344 43.409C118.521 44.3654 119.865 44.6141 120.648 44.681C120.783 44.6923 120.91 44.7489 121.009 44.8414C121.107 44.934 121.171 45.0572 121.19 45.1907C121.209 45.3244 121.183 45.4607 121.115 45.5775C121.047 45.6941 120.941 45.7844 120.816 45.8335C120.744 45.8622 113.414 48.8223 112.208 52.4902C112.06 52.9155 112.012 53.3694 112.067 53.8164C112.123 54.2633 112.281 54.6915 112.529 55.0677C112.68 55.3372 112.885 55.5721 113.132 55.7574C113.38 55.9427 113.662 56.0743 113.963 56.1437C116.197 56.6601 120.175 54.1399 124.001 51.7011C127.076 49.7453 130.256 47.7272 132.9 47.0434C133.024 47.006 133.156 47.0095 133.277 47.0532C133.398 47.0969 133.502 47.1786 133.573 47.2861C133.644 47.3937 133.678 47.5212 133.671 47.6498C133.663 47.7784 133.615 47.9012 133.532 47.9998C133.532 47.9998 132.288 49.7404 132.633 51.1368C132.72 51.4389 132.874 51.7173 133.085 51.9509C133.295 52.1845 133.555 52.3673 133.847 52.4854C135.134 53.1118 136.85 52.6575 138.151 51.9546C138.443 50.6921 139.017 49.5636 139.686 49.1379C139.868 49.0084 140.082 48.9319 140.305 48.9167C140.528 48.9015 140.751 48.9483 140.948 49.0519C141.089 49.1299 141.211 49.2366 141.308 49.3649C141.404 49.4932 141.472 49.6402 141.508 49.7966C141.545 49.9529 141.547 50.1151 141.517 50.2727C141.486 50.4303 141.423 50.5797 141.331 50.7112C140.802 51.5442 140.076 52.234 139.217 52.7197C139.217 52.7723 139.217 52.8201 139.194 52.8727C139.04 54.03 139.194 55.412 140.054 55.8089C140.786 56.1437 141.656 55.8089 142.359 55.3307C142.175 54.8632 142.107 54.3581 142.16 53.8586C142.214 53.359 142.387 52.8797 142.666 52.4614C142.832 52.2416 143.059 52.0745 143.319 51.9803C143.578 51.8862 143.859 51.8689 144.129 51.9306C144.36 51.975 144.574 52.0858 144.744 52.2497C144.914 52.4136 145.033 52.6235 145.085 52.8536C145.281 53.6904 144.655 54.8047 143.827 55.6463C144.339 56.4067 145.454 57.3344 147.873 57.3966C150.499 57.4683 152.928 55.9333 154.223 53.394C155.849 50.2234 155.299 46.3356 152.756 42.993C152.708 42.9302 152.673 42.8586 152.653 42.7823C152.633 42.706 152.628 42.6265 152.639 42.5484C152.649 42.4702 152.675 42.3949 152.715 42.3268C152.755 42.2587 152.808 42.199 152.87 42.1513C152.933 42.1036 153.004 42.0687 153.081 42.0486C153.157 42.0285 153.237 42.0237 153.315 42.0344C153.393 42.045 153.468 42.071 153.536 42.1108C153.605 42.1505 153.664 42.2033 153.712 42.2661C156.543 45.9865 157.131 50.3478 155.295 53.9391C154.622 55.3406 153.565 56.5221 152.247 57.3459C150.929 58.1697 149.404 58.6019 147.849 58.5921C145.018 58.5203 143.607 57.3918 142.914 56.4163C141.761 57.2005 140.556 57.3726 139.567 56.9279C138.577 56.4832 138.069 55.522 137.969 54.1639C137.955 53.9154 137.955 53.6663 137.969 53.4179C136.492 54.0539 134.78 54.3025 133.326 53.59C132.876 53.3972 132.475 53.1047 132.155 52.7343C131.834 52.364 131.602 51.9257 131.475 51.4524C131.301 50.5316 131.416 49.5792 131.806 48.7266C129.624 49.6065 127.1 51.2086 124.632 52.7676C120.405 55.4551 116.416 57.9944 113.633 57.344C113.179 57.2405 112.751 57.0434 112.377 56.765C112.003 56.4867 111.691 56.1334 111.462 55.7276C111.123 55.2038 110.906 54.6094 110.831 53.9895C110.755 53.3696 110.822 52.7407 111.027 52.1506C112.046 49.0519 116.349 46.5986 118.741 45.4366C118.344 45.2916 117.991 45.0477 117.714 44.728C117.439 44.4083 117.248 44.0234 117.163 43.6099C116.728 41.2858 119.697 38.1774 124.733 35.6955C129.563 33.3045 132.9 34.1174 134.837 35.1934C134.458 34.0737 134.435 32.8646 134.77 31.7312C135.248 30.3779 136.32 29.388 138.017 28.7902C140.408 27.9485 141.944 28.312 142.852 28.881C144.574 26.9682 147.944 24.9789 151.172 25.3184C152.204 25.4504 153.181 25.8587 153.998 26.5002C154.817 27.1417 155.446 27.9924 155.821 28.9623C156.039 29.4596 156.188 29.984 156.266 30.5213C158.704 30.3922 161.229 31.2147 162.688 33.5484C164.089 35.755 165.114 38.179 165.719 40.7215C166.098 42.1561 166.327 43.0216 167.154 43.5907C167.679 43.9241 168.241 44.1968 168.828 44.4037C170.55 45.0923 172.501 45.8766 173.104 49.7931C173.806 54.3647 169.278 59.7924 168.149 61.0836C168.426 61.9109 168.938 63.9528 167.915 65.4735C167.097 66.6451 165.638 67.2429 163.539 67.2429ZM143.803 53.0306C143.762 53.0345 143.722 53.0478 143.686 53.0693C143.651 53.0908 143.621 53.1201 143.598 53.1549C143.378 53.5014 143.296 53.9177 143.368 54.3217C143.847 53.6857 143.98 53.1788 143.928 53.0592H143.866L143.803 53.0306ZM140.274 50.1613C140.127 50.3009 140.001 50.4621 139.901 50.6395C140.041 50.4924 140.161 50.3286 140.26 50.1517L140.274 50.1613ZM152.397 33.1132C152.59 33.2043 152.797 33.2625 153.009 33.2854C153.309 33.3668 153.627 33.3625 153.926 33.2729C154.223 33.1833 154.491 33.012 154.697 32.7784C154.889 32.5158 155.016 32.2107 155.066 31.889C153.573 32.1854 152.612 32.7975 152.397 33.1037V33.1132ZM142.99 30.6983C142.937 30.8036 142.896 30.9142 142.866 31.0282C142.818 31.2338 142.866 31.2482 142.923 31.2769C142.99 31.3093 143.065 31.3242 143.139 31.3199C143.159 31.099 143.107 30.8776 142.99 30.6887V30.6983Z" fill="#161619"/>
<path d="M160.552 60.687C160.442 60.6868 160.335 60.6563 160.241 60.5989C160.148 60.5416 160.071 60.4596 160.021 60.3618C159.442 59.2327 158.937 58.0666 158.51 56.8709C158.319 56.9637 158.119 57.0359 157.913 57.0861C156.956 57.3109 155.206 57.1912 153.972 53.8486C153.945 53.7748 153.932 53.6964 153.935 53.6178C153.938 53.5392 153.957 53.4618 153.99 53.3903C154.022 53.3189 154.069 53.2545 154.126 53.201C154.185 53.1476 154.252 53.106 154.326 53.0787C154.4 53.0514 154.478 53.0389 154.557 53.0419C154.635 53.0449 154.713 53.0633 154.784 53.0962C154.856 53.1291 154.92 53.1757 154.973 53.2333C155.027 53.2911 155.069 53.3588 155.096 53.4326C155.574 54.7333 156.402 56.2205 157.635 55.924C157.819 55.8769 157.994 55.8028 158.156 55.7041C157.841 54.4942 157.736 53.3417 158.156 52.6627C158.292 52.4365 158.487 52.2521 158.721 52.1297C158.955 52.0074 159.218 51.9519 159.481 51.9693C159.825 51.9442 160.165 52.0564 160.427 52.2813C160.688 52.5062 160.851 52.8256 160.878 53.1696C160.983 54.0591 160.399 55.2832 159.539 56.1392C159.96 57.4029 160.478 58.6323 161.088 59.8167C161.16 59.9574 161.173 60.1211 161.125 60.2717C161.076 60.4223 160.97 60.5475 160.83 60.62C160.743 60.6635 160.649 60.6864 160.552 60.687ZM159.476 53.1648C159.246 53.1648 159.199 53.2413 159.171 53.2891C159.02 53.7555 159.02 54.2574 159.171 54.7238C159.497 54.315 159.682 53.8119 159.701 53.2891C159.672 53.1983 159.667 53.1648 159.476 53.1648ZM136.584 94.1085C136.449 94.1085 136.317 94.0611 136.212 93.975C136.15 93.9252 136.099 93.8644 136.061 93.7957C136.024 93.7269 136 93.6511 135.991 93.5729C135.983 93.4947 135.99 93.4157 136.012 93.3398C136.035 93.2648 136.071 93.1945 136.121 93.1329C137.517 91.4114 137.895 86.7631 137.923 85.1183C137.93 84.9611 137.996 84.8118 138.109 84.7028C138.222 84.593 138.373 84.5313 138.531 84.5305C138.609 84.5313 138.687 84.5479 138.759 84.5795C138.831 84.6103 138.896 84.6554 138.95 84.7122C139.005 84.7683 139.048 84.8347 139.077 84.9082C139.106 84.9809 139.12 85.0591 139.119 85.1373C139.119 85.3956 138.985 91.4976 137.053 93.8842C136.997 93.9545 136.926 94.0113 136.844 94.05C136.764 94.0888 136.675 94.1085 136.584 94.1085ZM157.219 95.2903C157.088 95.2903 156.961 95.2477 156.857 95.1679C156.754 95.0881 156.679 94.9767 156.645 94.8503C155.024 89.0162 155.631 81.0111 155.655 80.6761C155.668 80.5173 155.742 80.3704 155.863 80.2669C155.983 80.1634 156.14 80.1121 156.299 80.1239C156.457 80.1358 156.605 80.2108 156.708 80.3309C156.812 80.4518 156.863 80.6082 156.851 80.767C156.851 80.8484 156.229 88.8969 157.807 94.5296C157.828 94.6054 157.835 94.6844 157.825 94.7626C157.816 94.8408 157.79 94.9159 157.752 94.9846C157.713 95.0526 157.662 95.1126 157.6 95.1616C157.538 95.2098 157.467 95.2453 157.391 95.2667C157.335 95.2817 157.277 95.2896 157.219 95.2903Z" fill="#161619"/>
<path d="M119.817 100.77C119.659 100.77 119.506 100.707 119.394 100.595C119.282 100.483 119.22 100.331 119.22 100.172C119.22 100.013 119.282 99.8617 119.394 99.7496C119.506 99.6374 119.659 99.5742 119.817 99.5742C119.87 99.5742 125.178 99.5742 128.32 98.4263C130.151 97.7667 130.232 95.3042 130.343 92.9271C130.336 91.7611 130.471 90.599 130.744 89.4653C131.725 86.2706 137.745 86.4523 137.999 86.4618C138.158 86.4697 138.307 86.5384 138.414 86.6545C138.523 86.7706 138.581 86.9247 138.577 87.0835C138.577 87.1633 138.56 87.2415 138.528 87.3142C138.496 87.3868 138.449 87.4516 138.391 87.5053C138.333 87.5591 138.264 87.6009 138.189 87.627C138.114 87.6531 138.034 87.6633 137.955 87.657C136.464 87.6049 132.48 87.8869 131.887 89.8145C131.647 90.8502 131.53 91.9112 131.538 92.9753C131.433 95.6194 131.313 98.6183 128.721 99.5505C125.388 100.755 120.042 100.77 119.817 100.77Z" fill="#161619"/>
<path d="M143.674 112.265C143.635 112.269 143.595 112.269 143.555 112.265C143.425 112.238 143.308 112.169 143.221 112.069C143.135 111.968 143.083 111.842 143.077 111.709C143.077 111.662 142.78 106.449 142.699 101.141C142.651 98.4009 142.67 96.3066 142.733 94.7045C141.518 95.3863 140.107 95.6296 138.735 95.3934C133.953 94.5655 133.953 90.2189 133.953 90.1754C133.953 90.0972 133.968 90.0198 133.998 89.9471C134.029 89.8752 134.074 89.8097 134.13 89.7544C134.186 89.6999 134.253 89.6572 134.326 89.628C134.399 89.5995 134.476 89.5861 134.555 89.5877C134.713 89.5901 134.864 89.6548 134.975 89.7678C135.086 89.88 135.148 90.0317 135.148 90.1905C135.148 90.3334 135.172 93.5661 138.95 94.2171C139.626 94.3253 140.317 94.2969 140.982 94.1325C141.646 93.9682 142.271 93.6712 142.819 93.2604C143.053 89.7978 143.531 89.4826 143.837 89.282C143.964 89.1966 144.111 89.1476 144.264 89.139C144.415 89.1311 144.567 89.1635 144.703 89.2338C145.554 89.6596 145.86 90.5965 145.506 91.6725C145.191 92.517 144.664 93.2659 143.976 93.8481C143.79 97.5161 143.881 103.441 144.158 109.333C146.296 104.819 148.744 99.0661 149.896 95.0774C148.854 93.1932 148.38 90.9125 149.021 89.8887C149.2 89.6082 149.478 89.4036 149.799 89.3159C150.121 89.2274 150.464 89.2614 150.761 89.4107C150.955 89.4889 151.129 89.6074 151.272 89.7583C151.416 89.9092 151.525 90.0893 151.594 90.286C151.943 91.1803 151.723 92.8488 151.183 94.8767C151.607 95.6351 152.23 96.2632 152.985 96.6937C153.296 96.8509 153.645 96.9126 153.99 96.8731C154.335 96.8328 154.661 96.6922 154.927 96.4694C158.939 93.5756 160.273 88.9944 160.287 88.947C160.331 88.7937 160.433 88.665 160.571 88.5867C160.71 88.5093 160.873 88.4904 161.027 88.533C161.179 88.5765 161.309 88.6784 161.386 88.8166C161.464 88.9557 161.483 89.1192 161.44 89.2717C160.392 92.5304 158.36 95.3831 155.625 97.4395C154.243 98.4396 152.727 98.2769 151.359 96.9947C151.142 96.7901 150.94 96.5713 150.752 96.3398C148.839 102.451 144.832 110.686 144.205 111.944C144.155 112.041 144.078 112.122 143.985 112.179C143.891 112.235 143.784 112.265 143.674 112.265ZM150.102 90.463H150.063C150.03 90.4867 149.901 90.6968 149.934 91.2949C149.985 91.9506 150.133 92.596 150.374 93.2075C150.618 92.0651 150.675 91.1851 150.484 90.7016C150.422 90.5444 150.36 90.5199 150.336 90.5104C150.261 90.4804 150.182 90.4638 150.102 90.463ZM144.363 90.4962C144.233 90.9212 144.148 91.3589 144.11 91.802C144.204 91.6346 144.283 91.4584 144.344 91.2759C144.403 91.155 144.436 91.0239 144.442 90.8896C144.449 90.7561 144.429 90.6218 144.382 90.4962H144.363Z" fill="#161619"/>
<path d="M181.626 202.743C152.718 202.743 129.41 154.186 124.858 144.048C124.818 143.975 124.793 143.895 124.786 143.812C124.778 143.729 124.788 143.646 124.815 143.568C124.841 143.488 124.884 143.416 124.94 143.355C124.996 143.293 125.065 143.245 125.141 143.211C125.217 143.178 125.3 143.161 125.382 143.161C125.465 143.161 125.548 143.179 125.623 143.213C125.699 143.246 125.767 143.296 125.823 143.357C125.879 143.418 125.922 143.491 125.948 143.57C130.649 154.037 155.597 206.019 185.49 201.251C191.855 200.237 196.771 196.33 200.104 189.631C210.012 169.723 203.26 132.121 198.702 123.566C195.14 116.871 187.006 113.811 179.832 111.132C174.888 109.273 170.221 107.513 167.834 104.787C164.228 100.665 163.798 95.4138 163.483 91.5839C163.31 89.4462 163.157 87.5952 162.502 86.9924C161.005 85.606 157.534 87.0454 156.324 87.72C156.186 87.7903 156.027 87.8038 155.879 87.7595C155.73 87.7145 155.606 87.6142 155.53 87.4791C155.455 87.344 155.435 87.1852 155.474 87.0359C155.513 86.8866 155.609 86.7578 155.741 86.6772C155.951 86.5579 160.876 83.8609 163.315 86.1132C164.31 87.0359 164.463 88.9011 164.678 91.4883C164.975 95.1508 165.386 100.172 168.733 103.998C170.924 106.504 175.457 108.206 180.254 110.014C187.627 112.783 195.982 115.929 199.759 123.026C204.388 131.72 211.237 169.938 201.194 190.185C197.679 197.243 192.467 201.375 185.695 202.451C184.349 202.656 182.988 202.753 181.626 202.743Z" fill="#161619"/>
<path d="M150.911 120.852C150.403 120.855 149.894 120.82 149.391 120.747C145.536 120.174 143.992 116.07 143.408 113.574C142.251 115.721 139.97 119.035 137.191 118.357C137.115 118.338 137.044 118.304 136.98 118.257C136.916 118.21 136.864 118.152 136.822 118.085C136.782 118.018 136.755 117.943 136.743 117.865C136.732 117.787 136.735 117.708 136.754 117.631C136.773 117.555 136.807 117.484 136.853 117.42C136.9 117.357 136.958 117.303 137.026 117.263C137.093 117.222 137.168 117.195 137.245 117.183C137.323 117.172 137.402 117.175 137.478 117.194C139.917 117.796 142.38 113.235 143.121 111.422C143.173 111.299 143.263 111.197 143.379 111.131C143.496 111.066 143.63 111.04 143.762 111.059C143.894 111.077 144.015 111.14 144.108 111.236C144.2 111.333 144.256 111.457 144.269 111.589C144.269 111.661 145.038 118.872 149.568 119.547C154.349 120.26 166.702 117.113 168.878 105.096C168.889 105.017 168.917 104.941 168.959 104.873C169 104.804 169.055 104.746 169.12 104.699C169.185 104.652 169.259 104.619 169.337 104.601C169.415 104.584 169.495 104.582 169.574 104.596C169.653 104.61 169.728 104.64 169.795 104.683C169.862 104.727 169.919 104.784 169.964 104.85C170.009 104.915 170.04 104.991 170.055 105.069C170.07 105.147 170.07 105.228 170.054 105.306C167.935 117.032 156.746 120.852 150.911 120.852ZM125.834 107.859C125.731 107.86 125.63 107.833 125.54 107.783C125.45 107.733 125.375 107.66 125.322 107.572C124.594 106.416 124.135 105.109 123.979 103.751C123.824 102.393 123.976 101.017 124.423 99.7252C124.487 99.5782 124.605 99.4629 124.754 99.4044C124.902 99.346 125.068 99.3484 125.214 99.4116C125.361 99.4755 125.477 99.594 125.535 99.7426C125.593 99.8911 125.591 100.057 125.528 100.203C125.152 101.321 125.03 102.508 125.172 103.679C125.313 104.85 125.714 105.974 126.346 106.97C126.387 107.037 126.413 107.112 126.426 107.189C126.438 107.267 126.435 107.346 126.416 107.423C126.397 107.5 126.364 107.571 126.317 107.635C126.27 107.698 126.212 107.752 126.145 107.793C126.048 107.842 125.942 107.865 125.834 107.859Z" fill="#161619"/>
<path d="M175.31 168.426C175.032 168.427 174.757 168.379 174.497 168.282C173.368 167.876 171.842 166.341 172.583 160.875C170.016 158.078 166.783 154.18 163.622 150.354C159.405 145.266 155.421 140.46 153.273 138.547C150.782 136.328 147 131.374 143.002 126.114C139.004 120.854 134.872 115.436 131.525 112.083C125.231 105.742 120.947 107.464 120.909 107.483C120.767 107.53 120.613 107.523 120.476 107.462C120.341 107.402 120.232 107.292 120.172 107.156C120.111 107.019 120.105 106.866 120.153 106.724C120.201 106.583 120.3 106.464 120.431 106.393C120.631 106.302 125.452 104.26 132.386 111.242C135.761 114.646 139.922 120.108 143.943 125.387C147.913 130.595 151.657 135.51 154.067 137.653C156.282 139.628 160.284 144.467 164.536 149.608C167.338 152.989 170.351 156.628 172.823 159.378C172.973 158.581 173.166 157.714 173.402 156.776C173.417 156.697 173.448 156.621 173.493 156.553C173.539 156.486 173.598 156.428 173.667 156.385C173.736 156.34 173.813 156.311 173.893 156.298C173.974 156.285 174.056 156.289 174.135 156.309C174.214 156.328 174.288 156.365 174.352 156.414C174.417 156.464 174.471 156.526 174.511 156.597C174.55 156.668 174.575 156.746 174.584 156.828C174.591 156.908 174.583 156.99 174.558 157.068C174.238 158.345 174.004 159.483 173.847 160.497C175.28 162.023 176.438 163.151 177.194 163.61C177.451 163.744 177.68 163.928 177.865 164.152C178.051 164.375 178.19 164.633 178.276 164.91C178.361 165.188 178.391 165.48 178.362 165.769C178.335 166.057 178.249 166.339 178.112 166.594C177.85 167.121 177.452 167.569 176.96 167.891C176.467 168.213 175.897 168.397 175.31 168.426ZM173.65 162.018C173.349 165.284 173.999 166.828 174.903 167.159C175.687 167.445 176.672 166.814 177.036 166.064C177.107 165.94 177.15 165.802 177.165 165.66C177.179 165.518 177.163 165.375 177.118 165.239C177.073 165.104 176.999 164.979 176.903 164.874C176.807 164.769 176.689 164.685 176.558 164.629C175.494 163.869 174.519 162.994 173.65 162.018Z" fill="#161619"/>
<path d="M131.753 161.378C131.662 161.381 131.571 161.363 131.489 161.325C131.406 161.288 131.332 161.232 131.275 161.162C131.224 161.102 131.187 161.032 131.164 160.957C131.141 160.881 131.133 160.802 131.14 160.724C131.148 160.646 131.171 160.57 131.208 160.501C131.245 160.432 131.295 160.37 131.356 160.321C131.518 160.186 147.797 146.735 153.482 138.204C153.571 138.072 153.707 137.98 153.863 137.949C154.019 137.918 154.18 137.95 154.312 138.039C154.444 138.126 154.535 138.264 154.566 138.419C154.597 138.575 154.565 138.736 154.477 138.868C148.691 147.548 132.79 160.689 132.116 161.243C132.013 161.326 131.885 161.373 131.753 161.378ZM112.706 116.455C109.44 116.455 104.577 114.676 102.907 112.462C102.86 112.399 102.825 112.327 102.805 112.251C102.786 112.175 102.781 112.096 102.792 112.018C102.803 111.94 102.829 111.865 102.869 111.797C102.909 111.729 102.962 111.67 103.024 111.623C103.087 111.575 103.159 111.54 103.235 111.521C103.311 111.501 103.391 111.496 103.468 111.507C103.546 111.518 103.621 111.544 103.689 111.584C103.757 111.624 103.817 111.677 103.864 111.74C105.805 114.274 112.654 116.043 114.461 114.925C116.604 113.59 122.72 110.214 122.983 110.07C123.12 110.003 123.279 109.991 123.426 110.038C123.572 110.084 123.695 110.186 123.769 110.321C123.843 110.455 123.862 110.613 123.823 110.761C123.783 110.91 123.687 111.038 123.556 111.118C123.494 111.156 117.206 114.618 115.097 115.938C114.361 116.321 113.534 116.499 112.706 116.455Z" fill="#161619"/>
<path d="M118.4 143.604C115.83 143.596 113.298 142.993 111.002 141.839C107.846 140.257 105.387 137.679 105.148 135.709C105.102 135.236 105.176 134.761 105.362 134.324C105.549 133.888 105.842 133.506 106.215 133.212C103.953 132.103 102.088 130.267 102.136 127.565C102.118 126.343 102.538 125.155 103.322 124.217C103.112 124.074 102.901 123.926 102.695 123.768C98.3913 120.55 98.0855 117.461 98.9269 113.807C99.6489 110.665 102.877 109.981 104.474 110.015C104.633 110.015 104.785 110.077 104.897 110.189C105.009 110.302 105.072 110.454 105.072 110.612C105.072 110.771 105.009 110.923 104.897 111.035C104.785 111.147 104.633 111.21 104.474 111.21H104.369C103.8 111.21 100.749 111.339 100.113 114.079C99.3385 117.427 99.6347 119.961 103.436 122.811C103.714 123.022 103.992 123.213 104.269 123.395C105.372 122.679 106.659 122.299 107.975 122.3H108.094C110.194 122.3 112.398 123.113 112.489 124.662C112.516 125.006 112.44 125.35 112.269 125.651C112.099 125.951 111.842 126.192 111.533 126.346C110.064 127.125 107.133 126.47 104.36 124.858C103.68 125.606 103.318 126.588 103.35 127.599C103.312 129.889 105.163 131.5 107.367 132.428C109.638 131.151 113.106 130.707 114.473 131.563C114.71 131.695 114.903 131.895 115.026 132.136C115.15 132.378 115.199 132.652 115.167 132.921C115.038 134.088 113.541 134.691 111.174 134.537C109.917 134.448 108.677 134.186 107.492 133.758C106.885 134.174 106.263 134.805 106.354 135.579C106.521 136.938 108.51 139.257 111.557 140.787C114.33 142.179 119.997 143.939 126.74 140.074C126.877 139.995 127.041 139.974 127.194 140.015C127.347 140.057 127.478 140.157 127.557 140.295C127.636 140.432 127.658 140.596 127.617 140.749C127.575 140.902 127.475 141.033 127.338 141.112C124.631 142.72 121.547 143.58 118.4 143.604ZM108.998 132.964C109.729 133.156 110.477 133.279 111.231 133.332C113.082 133.452 113.933 133.021 113.957 132.777C113.957 132.716 113.957 132.658 113.823 132.562C113.068 132.094 110.849 132.266 108.998 132.964ZM105.397 124.069C107.788 125.341 110.036 125.762 110.949 125.274C111.058 125.227 111.149 125.146 111.207 125.041C111.264 124.938 111.286 124.818 111.27 124.7C111.245 124.222 109.917 123.457 107.97 123.481C107.08 123.488 106.202 123.688 105.397 124.069ZM69.4216 129.679H69.326C53.9181 127.206 49.3177 123.868 48.1701 121.506C47.9601 121.146 47.8397 120.741 47.8189 120.325C47.7981 119.909 47.8775 119.494 48.0505 119.115C48.1324 118.988 48.259 118.898 48.4048 118.861C48.5506 118.824 48.7052 118.843 48.8373 118.915C48.9696 118.987 49.0698 119.106 49.1181 119.248C49.1664 119.391 49.1592 119.546 49.0978 119.684C49.0261 119.909 49.0054 120.147 49.0367 120.381C49.0682 120.615 49.151 120.839 49.2795 121.037C50.1689 122.744 53.9803 125.987 69.5125 128.487C69.6582 128.514 69.7891 128.593 69.8798 128.71C69.9704 128.827 70.0143 128.974 70.003 129.122C69.9916 129.27 69.9259 129.408 69.8185 129.51C69.7111 129.612 69.5697 129.67 69.4216 129.674V129.679ZM82.0991 123.123C81.9972 123.123 81.8976 123.096 81.8092 123.047C81.7199 122.998 81.6456 122.927 81.5919 122.841C78.6462 118.097 71.9704 118.183 71.9035 118.178C71.7449 118.178 71.5929 118.115 71.4808 118.003C71.3687 117.89 71.3057 117.739 71.3057 117.58C71.3057 117.421 71.3687 117.269 71.4808 117.157C71.5929 117.045 71.7449 116.982 71.9035 116.982C72.2047 116.982 79.3207 116.877 82.6347 122.209C82.6766 122.276 82.705 122.349 82.7176 122.427C82.7311 122.505 82.7287 122.584 82.7105 122.66C82.6932 122.737 82.66 122.809 82.6142 122.873C82.5683 122.936 82.5099 122.991 82.4435 123.032C82.3408 123.097 82.22 123.129 82.0991 123.123Z" fill="#161619"/>
<path d="M95.4936 167.101C94.8451 167.11 94.2099 166.912 93.6814 166.536C93.1458 166.154 91.7348 165.136 95.0584 151.449C95.2598 150.627 95.4715 149.782 95.6943 148.915C92.9111 138.781 89.4162 124.779 89.8894 119.892C90.5633 112.848 89.6935 109.166 89.6887 109.133C89.6627 109.054 89.654 108.972 89.6611 108.89C89.669 108.808 89.6935 108.729 89.7338 108.657C89.7733 108.585 89.8278 108.522 89.8925 108.472C89.9581 108.422 90.0332 108.386 90.113 108.366C90.1927 108.347 90.2757 108.343 90.3563 108.357C90.4376 108.371 90.5151 108.401 90.5838 108.446C90.6525 108.491 90.711 108.55 90.756 108.618C90.8011 108.687 90.8319 108.764 90.8453 108.846C90.884 108.998 91.802 112.733 91.0752 120.007C90.6588 124.339 93.5811 136.577 96.2923 146.634C98.0137 140.192 100.233 132.942 102.509 126.415C102.533 126.338 102.571 126.267 102.623 126.205C102.675 126.144 102.739 126.094 102.811 126.058C102.882 126.021 102.96 126 103.041 125.994C103.12 125.989 103.201 126 103.277 126.026C103.353 126.053 103.422 126.094 103.482 126.148C103.541 126.201 103.59 126.267 103.623 126.34C103.657 126.413 103.676 126.492 103.678 126.572C103.68 126.652 103.667 126.732 103.638 126.807C101.156 133.98 98.7168 142.057 96.9425 148.943C98.2579 153.726 99.4531 157.756 100.104 159.856C100.489 160.99 100.501 162.217 100.139 163.36C99.777 164.501 99.0589 165.497 98.0904 166.202C97.3407 166.766 96.4322 167.081 95.4936 167.101ZM96.3405 151.248L96.2639 151.65C93.1647 164.394 94.3505 165.518 94.4034 165.565C95.169 166.121 96.3405 165.986 97.392 165.231C98.1615 164.676 98.7303 163.887 99.0131 162.982C99.2959 162.077 99.2778 161.104 98.961 160.21C98.9033 160.1 97.7846 156.432 96.3405 151.248Z" fill="#161619"/>
<path d="M94.9099 195.814C94.0204 195.814 93.1308 195.761 92.2468 195.657C73.0371 193.414 68.5419 161.355 69.9048 148.362C70.5669 141.682 69.3251 134.951 66.323 128.947C66.2444 128.809 66.2239 128.645 66.2661 128.491C66.3082 128.338 66.4096 128.208 66.5478 128.13C66.6861 128.051 66.8499 128.03 67.0032 128.072C67.1566 128.115 67.2869 128.216 67.3655 128.354C70.5221 134.566 71.8158 141.557 71.0908 148.486C70.1009 157.965 72.7693 192.181 92.3803 194.471C97.3636 195.05 101.563 193.95 104.871 191.2C111.748 185.462 112.556 174.396 112.566 174.286C112.566 174.204 112.583 174.123 112.615 174.048C112.648 173.974 112.695 173.906 112.755 173.851C112.814 173.795 112.885 173.752 112.961 173.725C113.039 173.697 113.12 173.685 113.202 173.691C113.283 173.695 113.363 173.717 113.435 173.755C113.508 173.792 113.573 173.844 113.624 173.906C113.676 173.969 113.715 174.042 113.738 174.121C113.76 174.199 113.766 174.281 113.756 174.362C113.728 174.841 112.915 186.055 105.627 192.113C102.686 194.577 99.0851 195.814 94.9099 195.814Z" fill="#161619"/>
<path d="M116.921 208.985C116.771 208.985 116.627 208.929 116.516 208.827C116.406 208.725 116.339 208.585 116.328 208.436C114.683 186.318 110.465 163.603 110.422 163.364C110.393 163.208 110.427 163.047 110.517 162.917C110.607 162.785 110.744 162.695 110.901 162.666C111.056 162.637 111.217 162.671 111.349 162.761C111.48 162.85 111.57 162.988 111.599 163.144C111.642 163.374 115.869 186.161 117.519 208.345C117.525 208.423 117.515 208.502 117.49 208.577C117.466 208.651 117.426 208.721 117.375 208.78C117.323 208.84 117.26 208.888 117.19 208.924C117.12 208.959 117.043 208.98 116.964 208.985H116.921ZM138.909 208.235H138.828C138.192 208.235 136.705 208.191 133.238 196.815C131.521 191.182 130.106 185.204 130.077 184.009C130.019 181.713 133.903 162.862 134.065 162.059C134.076 161.977 134.104 161.899 134.146 161.828C134.188 161.758 134.245 161.697 134.312 161.649C134.379 161.601 134.455 161.568 134.536 161.551C134.616 161.534 134.7 161.534 134.781 161.551C134.861 161.568 134.937 161.601 135.004 161.649C135.072 161.697 135.128 161.758 135.17 161.828C135.213 161.899 135.241 161.977 135.251 162.059C135.262 162.141 135.255 162.224 135.232 162.303C134.118 167.721 131.23 182.186 131.272 183.98C131.272 184.936 132.578 190.498 134.3 196.203C137.255 205.977 138.657 206.943 138.848 207.034C140.411 206.475 145.504 194.601 149.559 183.363C149.613 183.213 149.724 183.092 149.868 183.024C150.012 182.956 150.177 182.948 150.327 183.002C150.477 183.056 150.599 183.167 150.666 183.311C150.734 183.455 150.742 183.62 150.688 183.769C150.664 183.827 148.479 189.881 146.001 195.849C141.033 207.838 139.636 208.235 138.909 208.235ZM94.2498 107.328C94.2009 107.334 94.1511 107.334 94.1013 107.328C94.0255 107.309 93.9536 107.275 93.8904 107.228C93.8272 107.181 93.7735 107.122 93.7332 107.055C93.6929 106.988 93.666 106.913 93.6542 106.834C93.6431 106.757 93.6471 106.677 93.6668 106.601C93.7142 106.409 98.4195 87.2148 91.7827 74.4606C91.7092 74.3198 91.695 74.1559 91.7432 74.0048C91.7914 73.8537 91.8972 73.7278 92.0378 73.6549C92.1793 73.582 92.3428 73.5679 92.4937 73.6159C92.6454 73.6639 92.771 73.7699 92.8436 73.9107C99.6922 87.071 95.0296 106.089 94.8281 106.907C94.7894 107.03 94.7128 107.137 94.6085 107.213C94.5042 107.289 94.3786 107.329 94.2498 107.328ZM105.1 102.063C105.051 102.067 105.002 102.067 104.952 102.063C104.799 102.023 104.668 101.925 104.586 101.789C104.506 101.652 104.483 101.489 104.521 101.336C106.233 94.5839 104.22 86.5591 104.201 86.4777C104.169 86.3268 104.196 86.1688 104.277 86.0377C104.359 85.9057 104.487 85.8109 104.638 85.773C104.787 85.7343 104.946 85.7556 105.08 85.8315C105.215 85.9081 105.315 86.0337 105.359 86.1815C105.445 86.5212 107.472 94.5792 105.679 101.628C105.643 101.753 105.567 101.865 105.463 101.943C105.359 102.021 105.231 102.064 105.1 102.063ZM195.371 211.783C195.233 211.782 195.1 211.735 194.992 211.648C194.886 211.561 194.811 211.439 194.783 211.304L193.492 204.643C193.462 204.487 193.495 204.325 193.584 204.194C193.674 204.063 193.811 203.972 193.968 203.942C194.123 203.913 194.285 203.946 194.416 204.035C194.547 204.125 194.638 204.262 194.668 204.418L195.959 211.08C195.973 211.157 195.973 211.236 195.957 211.313C195.94 211.39 195.909 211.463 195.865 211.528C195.82 211.592 195.764 211.648 195.698 211.691C195.632 211.734 195.559 211.763 195.481 211.778L195.371 211.783Z" fill="#161619"/>
</svg>
