<svg width="36" height="36" viewBox="0 0 36 36" fill="none" xmlns="http://www.w3.org/2000/svg">
<path d="M22.5 12H29.1L21 3.9V10.5C21 11.4 21.6 12 22.5 12ZM22.5 15C19.95 15 18 13.05 18 10.5V3H10.5C7.95 3 6 4.95 6 7.5V28.5C6 31.05 7.95 33 10.5 33H25.5C28.05 33 30 31.05 30 28.5V15H22.5ZM13.5 12H15C15.9 12 16.5 12.6 16.5 13.5C16.5 14.4 15.9 15 15 15H13.5C12.6 15 12 14.4 12 13.5C12 12.6 12.6 12 13.5 12ZM23.7 20.4L20.25 24.9C19.8 25.5 18.75 25.65 18.15 25.2C18.15 25.2 18.15 25.2 18 25.2L16.65 24L14.7 26.55C14.25 27.15 13.2 27.3 12.6 26.85C12 26.4 11.85 25.35 12.3 24.75L15.3 21C15.6 20.7 15.9 20.55 16.35 20.4C16.8 20.4 17.1 20.55 17.55 20.85L18.9 22.05L21.45 18.75C21.9 18.15 22.95 18 23.55 18.45C24 18.75 24.15 19.8 23.7 20.4Z" fill="white"/>
</svg>
