<svg width="34" height="34" viewBox="0 0 34 34" fill="none" xmlns="http://www.w3.org/2000/svg">
<path d="M33.1837 23.8005C32.7757 22.4405 31.4157 21.5565 29.9877 21.6925C30.3277 20.9445 30.5317 20.0605 30.5317 19.0405C30.5317 16.0485 28.8997 11.8325 26.1797 9.38452H26.2477C27.0637 9.38452 27.7437 8.70452 27.7437 7.88852V7.20852C27.7437 6.39252 27.0637 5.71252 26.2477 5.71252L27.9477 1.83652C28.0157 1.63252 28.0157 1.42852 27.8117 1.29252C27.6757 1.15652 27.4037 1.08852 27.1997 1.22452C23.5277 3.06052 19.5837 3.06052 15.6397 1.22452C15.4357 1.15652 15.2317 1.15652 15.0957 1.29252C14.9597 1.42852 14.8917 1.63252 14.9597 1.83652L16.7277 5.71252C15.9797 5.78052 15.3677 6.39252 15.3677 7.14052V7.82052C15.3677 8.63652 16.0477 9.31652 16.8637 9.31652H17.2717C14.5517 11.7645 12.9197 15.9805 12.9197 18.9725C12.9197 19.3125 12.9197 19.6525 12.9877 19.9245C10.1317 19.6525 7.41169 20.8085 6.25569 21.3525V20.6045C6.25569 19.7885 5.57569 19.1765 4.82769 19.1765H2.10769C1.29169 19.1765 0.679688 19.8565 0.679688 20.6045V31.3485C0.679688 32.1645 1.35969 32.7765 2.10769 32.7765H4.89569C5.71169 32.7765 6.32369 32.0965 6.32369 31.3485V30.6005C8.15969 30.1245 10.0637 30.0565 11.8317 30.5325C13.8717 31.0765 15.5037 31.4165 16.7957 31.6885C17.2717 31.7565 17.8157 31.8245 18.2917 31.8245C19.3117 31.8245 20.3317 31.6205 21.2837 31.2805L31.0077 27.4725C31.7557 27.2685 32.4357 26.7925 32.8437 26.1125C33.3197 25.3645 33.4557 24.5485 33.1837 23.8005ZM4.01169 30.0565C4.01169 30.3285 3.80769 30.6005 3.46769 30.6005C3.19569 30.6005 2.92369 30.3965 2.92369 30.0565V29.2405C2.92369 28.9685 3.12769 28.6965 3.46769 28.6965C3.73969 28.6965 4.01169 28.9005 4.01169 29.2405V30.0565ZM16.9317 8.36452C16.6597 8.36452 16.4557 8.16052 16.4557 7.88852V7.20852C16.4557 6.93652 16.6597 6.73252 16.9317 6.73252H26.2477C26.5197 6.73252 26.7237 6.93652 26.7237 7.20852V7.88852C26.7237 8.16052 26.5197 8.36452 26.2477 8.36452H16.9317ZM32.0277 25.5685C31.7557 26.0445 31.3477 26.3845 30.8037 26.5205L21.0117 30.3285C19.7877 30.8045 18.4277 30.9405 17.0677 30.6685C15.8437 30.4645 14.1437 30.0565 12.1717 29.5805C10.2677 29.1045 8.29569 29.1045 6.39169 29.5805V22.5765C6.86769 22.3045 9.99569 20.6725 13.1237 21.0125L19.8557 22.0325C20.7397 22.1685 21.3517 22.9845 21.2837 23.9365C21.2157 24.4125 21.0117 24.7525 20.6037 25.0245C20.2637 25.2965 19.7877 25.4325 19.3797 25.3645L14.6197 24.6845C14.3477 24.6165 14.0757 24.8205 14.0077 25.0925C13.9397 25.3645 14.1437 25.6365 14.4157 25.6365L19.1757 26.3165C19.3117 26.3165 19.4477 26.3165 19.5837 26.3165C20.0597 26.3165 20.4677 26.1805 20.8757 25.9765L28.8317 23.1205C28.8997 23.1205 28.9677 23.1205 29.0357 23.0525L29.9197 22.7125C30.9397 22.4405 31.9597 23.0525 32.2997 24.0725C32.3677 24.5485 32.2997 25.0925 32.0277 25.5685Z" fill="white"/>
</svg>
